<svg xmlns="http://www.w3.org/2000/svg" xmlns:xlink="http://www.w3.org/1999/xlink" xmlns:lucid="lucid" width="2220" height="2071"><g transform="translate(1040 -120)" lucid:page-tab-id="0_0"><path d="M-1806.87 0h3677.74v2581.67h-3677.74z" fill="#fff"/><path d="M40 806c0-3.3 2.7-6 6-6h188c3.3 0 6 2.7 6 6v284c0 3.3-2.7 6-6 6H46c-3.3 0-6-2.7-6-6z" fill="#fff"/><path d="M40 760h200v40H40z" fill="#ccc"/><path d="M40 766c0-3.3 2.7-6 6-6h188c3.3 0 6 2.7 6 6v324c0 3.3-2.7 6-6 6H46c-3.3 0-6-2.7-6-6zM40 800h200" stroke="#5e5e5e" stroke-width="3" fill="none"/><use xlink:href="#a" transform="matrix(1,0,0,1,50,760) translate(64.69135802469137 24.444444444444443)"/><use xlink:href="#b" transform="matrix(1,0,0,1,45,802.5) translate(0 20.444444444444443)"/><use xlink:href="#c" transform="matrix(1,0,0,1,45,839.5) translate(0 20.444444444444443)"/><use xlink:href="#d" transform="matrix(1,0,0,1,45,876.5) translate(0 20.444444444444443)"/><use xlink:href="#e" transform="matrix(1,0,0,1,45,913.5) translate(0 20.444444444444443)"/><use xlink:href="#f" transform="matrix(1,0,0,1,45,950.5) translate(0 20.444444444444443)"/><use xlink:href="#g" transform="matrix(1,0,0,1,45,987.5) translate(0 20.444444444444443)"/><use xlink:href="#h" transform="matrix(1,0,0,1,45,1024.5) translate(0 20.444444444444443)"/><use xlink:href="#i" transform="matrix(1,0,0,1,45,1061.5) translate(0 20.444444444444443)"/><path d="M-820 841.5c0-3.3 2.7-6 6-6h188c3.3 0 6 2.7 6 6v25c0 3.3-2.7 6-6 6h-188c-3.3 0-6-2.7-6-6z" fill="#fff"/><path d="M-820 795.5h200v40h-200z" fill="#ccc"/><path d="M-820 801.5c0-3.3 2.7-6 6-6h188c3.3 0 6 2.7 6 6v65c0 3.3-2.7 6-6 6h-188c-3.3 0-6-2.7-6-6zM-820 835.5h200" stroke="#5e5e5e" stroke-width="3" fill="none"/><use xlink:href="#j" transform="matrix(1,0,0,1,-810,795.5) translate(62.870370370370374 24.444444444444443)"/><use xlink:href="#k" transform="matrix(1,0,0,1,-815,838) translate(0 20.444444444444443)"/><path d="M-620 1626c0-3.3 2.7-6 6-6h268c3.3 0 6 2.7 6 6v25c0 3.3-2.7 6-6 6h-268c-3.3 0-6-2.7-6-6z" fill="#fff"/><path d="M-620 1580h280v40h-280z" fill="#ccc"/><path d="M-620 1586c0-3.3 2.7-6 6-6h268c3.3 0 6 2.7 6 6v65c0 3.3-2.7 6-6 6h-268c-3.3 0-6-2.7-6-6zM-620 1620h280" stroke="#5e5e5e" stroke-width="3" fill="none"/><use xlink:href="#l" transform="matrix(1,0,0,1,-610,1580) translate(77.00617283950616 24.444444444444443)"/><use xlink:href="#m" transform="matrix(1,0,0,1,-615,1622.5) translate(0 20.444444444444443)"/><path d="M30 1553.95c0-3.32 2.7-6 6-6h208c3.3 0 6 2.68 6 6v210c0 3.3-2.7 6-6 6H36c-3.3 0-6-2.7-6-6z" fill="#fff"/><path d="M30 1507.95h220v40H30z" fill="#ccc"/><path d="M30 1513.95c0-3.32 2.7-6 6-6h208c3.3 0 6 2.68 6 6v250c0 3.3-2.7 6-6 6H36c-3.3 0-6-2.7-6-6zM30 1547.95h220" stroke="#5e5e5e" stroke-width="3" fill="none"/><use xlink:href="#n" transform="matrix(1,0,0,1,40,1507.9452463054188) translate(51.94444444444444 24.444444444444443)"/><use xlink:href="#k" transform="matrix(1,0,0,1,35,1550.4452463054188) translate(0 20.444444444444443)"/><use xlink:href="#c" transform="matrix(1,0,0,1,35,1587.4452463054188) translate(0 20.444444444444443)"/><use xlink:href="#o" transform="matrix(1,0,0,1,35,1624.4452463054188) translate(0 20.444444444444443)"/><use xlink:href="#p" transform="matrix(1,0,0,1,35,1661.4452463054188) translate(0 20.444444444444443)"/><use xlink:href="#q" transform="matrix(1,0,0,1,35,1698.4452463054188) translate(0 20.444444444444443)"/><use xlink:href="#r" transform="matrix(1,0,0,1,35,1735.4452463054188) translate(0 20.444444444444443)"/><path d="M740 1592.7c0-3.3 2.7-6 6-6h188c3.3 0 6 2.7 6 6v136c0 3.3-2.7 6-6 6H746c-3.3 0-6-2.7-6-6z" fill="#fff"/><path d="M740 1546.7h200v40H740z" fill="#ccc"/><path d="M740 1552.7c0-3.3 2.7-6 6-6h188c3.3 0 6 2.7 6 6v176c0 3.3-2.7 6-6 6H746c-3.3 0-6-2.7-6-6zM740 1586.7h200" stroke="#5e5e5e" stroke-width="3" fill="none"/><use xlink:href="#s" transform="matrix(1,0,0,1,750,1546.700246305419) translate(61.66666666666667 24.444444444444443)"/><use xlink:href="#k" transform="matrix(1,0,0,1,745,1589.200246305419) translate(0 20.444444444444443)"/><use xlink:href="#t" transform="matrix(1,0,0,1,745,1626.200246305419) translate(0 20.444444444444443)"/><use xlink:href="#u" transform="matrix(1,0,0,1,745,1663.200246305419) translate(0 20.444444444444443)"/><use xlink:href="#v" transform="matrix(1,0,0,1,745,1700.200246305419) translate(0 20.444444444444443)"/><path d="M-380 186c0-3.3 2.7-6 6-6h188c3.3 0 6 2.7 6 6v173c0 3.3-2.7 6-6 6h-188c-3.3 0-6-2.7-6-6z" fill="#fff"/><path d="M-380 140h200v40h-200z" fill="#ccc"/><path d="M-380 146c0-3.3 2.7-6 6-6h188c3.3 0 6 2.7 6 6v213c0 3.3-2.7 6-6 6h-188c-3.3 0-6-2.7-6-6zM-380 180h200" stroke="#5e5e5e" stroke-width="3" fill="none"/><use xlink:href="#w" transform="matrix(1,0,0,1,-370,140) translate(65.55555555555556 24.444444444444443)"/><use xlink:href="#k" transform="matrix(1,0,0,1,-375,182.5) translate(0 20.444444444444443)"/><use xlink:href="#c" transform="matrix(1,0,0,1,-375,219.5) translate(0 20.444444444444443)"/><use xlink:href="#x" transform="matrix(1,0,0,1,-375,256.5) translate(0 20.444444444444443)"/><use xlink:href="#y" transform="matrix(1,0,0,1,-375,293.5) translate(0 20.444444444444443)"/><use xlink:href="#z" transform="matrix(1,0,0,1,-375,330.5) translate(0 20.444444444444443)"/><path d="M40 186c0-3.3 2.7-6 6-6h188c3.3 0 6 2.7 6 6v136c0 3.3-2.7 6-6 6H46c-3.3 0-6-2.7-6-6z" fill="#fff"/><path d="M40 140h200v40H40z" fill="#ccc"/><path d="M40 146c0-3.3 2.7-6 6-6h188c3.3 0 6 2.7 6 6v176c0 3.3-2.7 6-6 6H46c-3.3 0-6-2.7-6-6zM40 180h200" stroke="#5e5e5e" stroke-width="3" fill="none"/><use xlink:href="#A" transform="matrix(1,0,0,1,50,140) translate(43.79629629629629 24.444444444444443)"/><use xlink:href="#k" transform="matrix(1,0,0,1,45,182.5) translate(0 20.444444444444443)"/><use xlink:href="#c" transform="matrix(1,0,0,1,45,219.5) translate(0 20.444444444444443)"/><use xlink:href="#B" transform="matrix(1,0,0,1,45,256.5) translate(0 20.444444444444443)"/><use xlink:href="#p" transform="matrix(1,0,0,1,45,293.5) translate(0 20.444444444444443)"/><path d="M460 186c0-3.3 2.7-6 6-6h188c3.3 0 6 2.7 6 6v173c0 3.3-2.7 6-6 6H466c-3.3 0-6-2.7-6-6z" fill="#fff"/><path d="M460 140h200v40H460z" fill="#ccc"/><path d="M460 146c0-3.3 2.7-6 6-6h188c3.3 0 6 2.7 6 6v213c0 3.3-2.7 6-6 6H466c-3.3 0-6-2.7-6-6zM460 180h200" stroke="#5e5e5e" stroke-width="3" fill="none"/><use xlink:href="#C" transform="matrix(1,0,0,1,470,140) translate(57.31481481481482 24.444444444444443)"/><use xlink:href="#k" transform="matrix(1,0,0,1,465,182.5) translate(0 20.444444444444443)"/><use xlink:href="#c" transform="matrix(1,0,0,1,465,219.5) translate(0 20.444444444444443)"/><use xlink:href="#D" transform="matrix(1,0,0,1,465,256.5) translate(0 20.444444444444443)"/><use xlink:href="#E" transform="matrix(1,0,0,1,465,293.5) translate(0 20.444444444444443)"/><use xlink:href="#F" transform="matrix(1,0,0,1,465,330.5) translate(0 20.444444444444443)"/><path d="M560 580.33V684c0 3.3-2.7 6-6 6H200.1c-3.32 0-6 2.7-6 6v61.5" stroke="#5e5e5e" stroke-width="2" fill="none"/><path d="M561 579.35v1h-2v-1.04M195.1 758.5h-2v-1.03h2" fill="#5e5e5e"/><use xlink:href="#G" transform="matrix(1,0,0,1,343.40317530572133,664.6666666666666) translate(0 14.222222222222223)"/><use xlink:href="#H" transform="matrix(1,0,0,1,343.40317530572133,664.6666666666666) translate(14.814814814814817 14.222222222222223)"/><use xlink:href="#I" transform="matrix(1,0,0,1,343.40317530572133,664.6666666666666) translate(29.629629629629633 14.222222222222223)"/><path d="M560 459.67v-91.43" stroke="#5e5e5e" stroke-width="2" fill="none"/><path d="M561 460.7l-2-.05v-1h2M561 368.26h-2v-1.76h2" fill="#5e5e5e"/><use xlink:href="#G" transform="matrix(1,0,0,1,568,403.2861670203351) translate(0 14.222222222222223)"/><use xlink:href="#H" transform="matrix(1,0,0,1,568,403.2861670203351) translate(14.814814814814817 14.222222222222223)"/><use xlink:href="#I" transform="matrix(1,0,0,1,568,403.2861670203351) translate(29.629629629629633 14.222222222222223)"/><path d="M555.2 463.6c2.65-2 6.95-2 9.6 0l70.4 52.8c2.65 2 2.65 5.2 0 7.2l-70.4 52.8c-2.65 2-6.95 2-9.6 0l-70.4-52.8c-2.65-2-2.65-5.2 0-7.2z" stroke="#5e5e5e" stroke-width="3" fill="#fff"/><use xlink:href="#J" transform="matrix(1,0,0,1,485,465) translate(43.83216049382715 59.02777777777778)"/><path d="M135.2 463.6c2.65-2 6.95-2 9.6 0l70.4 52.8c2.65 2 2.65 5.2 0 7.2l-70.4 52.8c-2.65 2-6.95 2-9.6 0l-70.4-52.8c-2.65-2-2.65-5.2 0-7.2z" stroke="#5e5e5e" stroke-width="3" fill="#fff"/><use xlink:href="#K" transform="matrix(1,0,0,1,65,465) translate(26.91858024691357 59.02777777777778)"/><path d="M140 459.67V330.5" stroke="#5e5e5e" stroke-width="2" fill="none"/><path d="M141 460.7l-2-.05v-1h2M141 330.53h-2v-1.03h2" fill="#5e5e5e"/><use xlink:href="#G" transform="matrix(1,0,0,1,148,399.99586715041806) translate(0 14.222222222222223)"/><use xlink:href="#H" transform="matrix(1,0,0,1,148,399.99586715041806) translate(14.814814814814817 14.222222222222223)"/><use xlink:href="#I" transform="matrix(1,0,0,1,148,399.99586715041806) translate(29.629629629629633 14.222222222222223)"/><path d="M140 580.33V757.5" stroke="#5e5e5e" stroke-width="2" fill="none"/><path d="M141 579.35v1h-2v-1.04M141 758.5h-2v-1.03h2" fill="#5e5e5e"/><use xlink:href="#L" transform="matrix(1,0,0,1,92.49382716049382,641.5287089763693) translate(0 14.222222222222223)"/><use xlink:href="#H" transform="matrix(1,0,0,1,92.49382716049382,641.5287089763693) translate(14.814814814814817 14.222222222222223)"/><use xlink:href="#M" transform="matrix(1,0,0,1,92.49382716049382,641.5287089763693) translate(29.629629629629633 14.222222222222223)"/><path d="M-284.8 463.6c2.65-2 6.95-2 9.6 0l70.4 52.8c2.65 2 2.65 5.2 0 7.2l-70.4 52.8c-2.65 2-6.95 2-9.6 0l-70.4-52.8c-2.65-2-2.65-5.2 0-7.2z" stroke="#5e5e5e" stroke-width="3" fill="#fff"/><use xlink:href="#N" transform="matrix(1,0,0,1,-355,465) translate(21.579074074074065 59.02777777777778)"/><path d="M-280 459.67V367.5" stroke="#5e5e5e" stroke-width="2" fill="none"/><path d="M-279 460.7l-2-.05v-1h2M-279 367.53h-2v-1.03h2" fill="#5e5e5e"/><use xlink:href="#G" transform="matrix(1,0,0,1,-324.5432098765432,402.9186173514609) translate(0 14.222222222222223)"/><use xlink:href="#H" transform="matrix(1,0,0,1,-324.5432098765432,402.9186173514609) translate(14.814814814814817 14.222222222222223)"/><use xlink:href="#I" transform="matrix(1,0,0,1,-324.5432098765432,402.9186173514609) translate(29.629629629629633 14.222222222222223)"/><path d="M-280 580.33V684c0 3.3 2.7 6 6 6H79.76c3.3 0 6 2.7 6 6v61.5" stroke="#5e5e5e" stroke-width="2" fill="none"/><path d="M-279 579.35v1h-2v-1.04M86.76 758.5h-2v-1.03h2" fill="#5e5e5e"/><use xlink:href="#G" transform="matrix(1,0,0,1,-100.11710534082579,664.6666666666666) translate(0 14.222222222222223)"/><use xlink:href="#H" transform="matrix(1,0,0,1,-100.11710534082579,664.6666666666666) translate(14.814814814814817 14.222222222222223)"/><use xlink:href="#M" transform="matrix(1,0,0,1,-100.11710534082579,664.6666666666666) translate(29.629629629629633 14.222222222222223)"/><path d="M135.2 1240.93c2.65-1.98 6.95-1.98 9.6 0l70.4 52.8c2.65 2 2.65 5.22 0 7.2l-70.4 52.8c-2.65 2-6.95 2-9.6 0l-70.4-52.8c-2.65-1.98-2.65-5.2 0-7.2z" stroke="#5e5e5e" stroke-width="3" fill="#fff"/><use xlink:href="#O" transform="matrix(1,0,0,1,65,1242.3333333333335) translate(36.85685185185185 59.02777777777778)"/><path d="M140 1357.66v147.8" stroke="#5e5e5e" stroke-width="2" fill="none"/><path d="M141 1356.7v1h-2v-1.06M141 1506.45h-2v-1.03h2" fill="#5e5e5e"/><use xlink:href="#G" transform="matrix(1,0,0,1,148,1412.1058057646148) translate(0 14.222222222222223)"/><use xlink:href="#P" transform="matrix(1,0,0,1,148,1412.1058057646148) translate(14.814814814814817 14.222222222222223)"/><path d="M140 1237v-138.5" stroke="#5e5e5e" stroke-width="2" fill="none"/><path d="M141 1238.03l-2-.05v-1h2M141 1098.53h-2v-1.03h2" fill="#5e5e5e"/><use xlink:href="#G" transform="matrix(1,0,0,1,148,1175.134385496788) translate(0 14.222222222222223)"/><use xlink:href="#H" transform="matrix(1,0,0,1,148,1175.134385496788) translate(14.814814814814817 14.222222222222223)"/><use xlink:href="#I" transform="matrix(1,0,0,1,148,1175.134385496788) translate(29.629629629629633 14.222222222222223)"/><path d="M-83.97 1243.6c2.65-2 6.95-2 9.6 0l70.4 52.8c2.65 2 2.65 5.2 0 7.2l-70.4 52.8c-2.65 2-6.95 2-9.6 0l-70.4-52.8c-2.65-2-2.65-5.2 0-7.2z" stroke="#5e5e5e" stroke-width="3" fill="#fff"/><use xlink:href="#Q" transform="matrix(1,0,0,1,-154.1705680362552,1245) translate(38.67783950617284 59.02777777777778)"/><path d="M-79.17 1360.33V1464c0 3.3 2.7 6 6 6h160.6c3.3 0 6 2.7 6 6v29.45" stroke="#5e5e5e" stroke-width="2" fill="none"/><path d="M-78.17 1359.35v1h-2v-1.04M94.42 1506.45h-2v-1.03h2" fill="#5e5e5e"/><use xlink:href="#G" transform="matrix(1,0,0,1,-11.797736061457556,1444.6666666666665) translate(0 14.222222222222223)"/><use xlink:href="#H" transform="matrix(1,0,0,1,-11.797736061457556,1444.6666666666665) translate(14.814814814814817 14.222222222222223)"/><use xlink:href="#I" transform="matrix(1,0,0,1,-11.797736061457556,1444.6666666666665) translate(29.629629629629633 14.222222222222223)"/><path d="M-79.17 1239.67v-64.58c0-3.33 2.7-6 6-6H84.1c3.3 0 6-2.7 6-6v-64.6" stroke="#5e5e5e" stroke-width="2" fill="none"/><path d="M-78.17 1240.7l-2-.05v-1h2M91.1 1098.53h-2v-1.03h2" fill="#5e5e5e"/><use xlink:href="#G" transform="matrix(1,0,0,1,-3.7854450801386434,1143.751950684794) translate(0 14.222222222222223)"/><use xlink:href="#H" transform="matrix(1,0,0,1,-3.7854450801386434,1143.751950684794) translate(14.814814814814817 14.222222222222223)"/><use xlink:href="#I" transform="matrix(1,0,0,1,-3.7854450801386434,1143.751950684794) translate(29.629629629629633 14.222222222222223)"/><path d="M-380 1267.33c0-3.3 2.7-6 6-6h128c3.3 0 6 2.7 6 6v65.34c0 3.3-2.7 6-6 6h-128c-3.3 0-6-2.7-6-6z" stroke="#5e5e5e" stroke-width="3" fill="#fff"/><use xlink:href="#R" transform="matrix(1,0,0,1,-368,1273.3333333333333) translate(25.962962962962962 17.77777777777778)"/><use xlink:href="#S" transform="matrix(1,0,0,1,-368,1273.3333333333333) translate(9.944444444444443 44.44444444444444)"/><path d="M-158.78 1300h-3.94m-7.87 0h-7.86m-7.87 0h-7.87m-7.88 0h-7.87m-7.87 0h-7.87m-7.86 0h-3.94" stroke="#5e5e5e" stroke-width="2" fill="none"/><path d="M-157.9 1299.4l.3 1.6h-1.2v-2h1.08M-237.47 1301h-1.03v-2h1.03" fill="#5e5e5e"/><path d="M375.2 1240.93c2.65-1.98 6.95-1.98 9.6 0l70.4 52.8c2.65 2 2.65 5.22 0 7.2l-70.4 52.8c-2.65 2-6.95 2-9.6 0l-70.4-52.8c-2.65-1.98-2.65-5.2 0-7.2z" stroke="#5e5e5e" stroke-width="3" fill="#fff"/><use xlink:href="#T" transform="matrix(1,0,0,1,305,1242.3333333333335) translate(54.07907407407407 59.02777777777778)"/><path d="M540 1263.33c0-3.3 2.7-6 6-6h128c3.3 0 6 2.7 6 6v65.34c0 3.3-2.7 6-6 6H546c-3.3 0-6-2.7-6-6z" stroke="#5e5e5e" stroke-width="3" fill="#fff"/><use xlink:href="#U" transform="matrix(1,0,0,1,552,1269.3333333333333) translate(16.672839506172842 31.27777777777778)"/><path d="M459.6 1297.33h4.88m9.74 0h9.73m9.74 0h9.72m9.74 0h9.74m9.73 0h4.87" stroke="#5e5e5e" stroke-width="2" fill="none"/><path d="M459.64 1298.33h-1.1l.18-.4-.28-1.6h1.2M538.5 1298.33h-1.03v-2h1.03" fill="#5e5e5e"/><path d="M380 1237v-63.25c0-3.3-2.7-6-6-6H194.5c-3.3 0-6-2.68-6-6v-63.25" stroke="#5e5e5e" stroke-width="2" fill="none"/><path d="M381 1238.03l-2-.05v-1h2M189.5 1098.53h-2v-1.03h2" fill="#5e5e5e"/><use xlink:href="#G" transform="matrix(1,0,0,1,262.55135800498306,1142.4186173514609) translate(0 14.222222222222223)"/><use xlink:href="#H" transform="matrix(1,0,0,1,262.55135800498306,1142.4186173514609) translate(14.814814814814817 14.222222222222223)"/><use xlink:href="#I" transform="matrix(1,0,0,1,262.55135800498306,1142.4186173514609) translate(29.629629629629633 14.222222222222223)"/><path d="M380 1357.66V1464c0 3.3-2.7 6-6 6H196.1c-3.32 0-6 2.7-6 6v29.45" stroke="#5e5e5e" stroke-width="2" fill="none"/><path d="M381 1356.7v1h-2v-1.06M191.1 1506.45h-2v-1.03h2" fill="#5e5e5e"/><use xlink:href="#G" transform="matrix(1,0,0,1,268.7640041905601,1444.6666666666665) translate(0 14.222222222222223)"/><use xlink:href="#H" transform="matrix(1,0,0,1,268.7640041905601,1444.6666666666665) translate(14.814814814814817 14.222222222222223)"/><use xlink:href="#I" transform="matrix(1,0,0,1,268.7640041905601,1444.6666666666665) translate(29.629629629629633 14.222222222222223)"/><path d="M495.2 1548.8c2.65-2 6.95-2 9.6 0l70.4 52.8c2.65 2 2.65 5.2 0 7.2l-70.4 52.8c-2.65 2-6.95 2-9.6 0l-70.4-52.8c-2.65-2-2.65-5.2 0-7.2z" stroke="#5e5e5e" stroke-width="3" fill="#fff"/><use xlink:href="#V" transform="matrix(1,0,0,1,425,1550.200246305419) translate(41.702530864197534 59.02777777777778)"/><path d="M252.5 1603.45h168.26" stroke="#5e5e5e" stroke-width="2" fill="none"/><path d="M252.53 1604.45h-1.03v-2h1.03M421.35 1604.45h-.62v-2h1.44" fill="#5e5e5e"/><use xlink:href="#G" transform="matrix(1,0,0,1,318.357894404391,1578.1119129720853) translate(0 14.222222222222223)"/><use xlink:href="#H" transform="matrix(1,0,0,1,318.357894404391,1578.1119129720853) translate(14.814814814814817 14.222222222222223)"/><use xlink:href="#I" transform="matrix(1,0,0,1,318.357894404391,1578.1119129720853) translate(29.629629629629633 14.222222222222223)"/><path d="M579.6 1605.2h157.9" stroke="#5e5e5e" stroke-width="2" fill="none"/><path d="M579.64 1606.2h-1.1l.18-.4-.28-1.6h1.2M738.5 1606.2h-1.03v-2h1.03" fill="#5e5e5e"/><use xlink:href="#L" transform="matrix(1,0,0,1,638.8024761000406,1579.8669129720854) translate(0 14.222222222222223)"/><use xlink:href="#H" transform="matrix(1,0,0,1,638.8024761000406,1579.8669129720854) translate(14.814814814814817 14.222222222222223)"/><use xlink:href="#M" transform="matrix(1,0,0,1,638.8024761000406,1579.8669129720854) translate(29.629629629629633 14.222222222222223)"/><path d="M835.2 799.1c2.65-2 6.95-2 9.6 0l70.4 52.8c2.65 2 2.65 5.2 0 7.2l-70.4 52.8c-2.65 2-6.95 2-9.6 0l-70.4-52.8c-2.65-2-2.65-5.2 0-7.2z" stroke="#5e5e5e" stroke-width="3" fill="#fff"/><use xlink:href="#W" transform="matrix(1,0,0,1,765,800.5) translate(17.69018518518518 59.02777777777778)"/><path d="M760.4 855.5H242.5" stroke="#5e5e5e" stroke-width="2" fill="none"/><path d="M761.28 854.9l.28 1.6h-1.2v-2h1.1M242.53 856.5h-1.03v-2h1.03" fill="#5e5e5e"/><use xlink:href="#G" transform="matrix(1,0,0,1,483.1728325419347,830.1666666666667) translate(0 14.222222222222223)"/><use xlink:href="#H" transform="matrix(1,0,0,1,483.1728325419347,830.1666666666667) translate(14.814814814814817 14.222222222222223)"/><use xlink:href="#I" transform="matrix(1,0,0,1,483.1728325419347,830.1666666666667) translate(29.629629629629633 14.222222222222223)"/><path d="M840 915.83v628.37" stroke="#5e5e5e" stroke-width="2" fill="none"/><path d="M841 914.85v1h-2v-1.04M841 1545.2h-2v-1.03h2" fill="#5e5e5e"/><use xlink:href="#L" transform="matrix(1,0,0,1,848.0000000000001,1219.3481724679152) translate(0 14.222222222222223)"/><use xlink:href="#H" transform="matrix(1,0,0,1,848.0000000000001,1219.3481724679152) translate(14.814814814814817 14.222222222222223)"/><use xlink:href="#I" transform="matrix(1,0,0,1,848.0000000000001,1219.3481724679152) translate(29.629629629629633 14.222222222222223)"/><path d="M-484.8 948.23c2.65-2 6.95-2 9.6 0l70.4 52.8c2.65 2 2.65 5.2 0 7.2l-70.4 52.8c-2.65 2-6.95 2-9.6 0l-70.4-52.8c-2.65-2-2.65-5.2 0-7.2z" stroke="#5e5e5e" stroke-width="3" fill="#fff"/><use xlink:href="#X" transform="matrix(1,0,0,1,-554.9999999999999,949.6324999999999) translate(33.67783950617284 59.02777777777778)"/><path d="M-480 1064.96v512.54" stroke="#5e5e5e" stroke-width="2" fill="none"/><path d="M-479 1064v1h-2v-1.06M-479 1578.5h-2v-1.03h2" fill="#5e5e5e"/><use xlink:href="#G" transform="matrix(1,0,0,1,-524.5432098765431,1310.5642993152057) translate(0 14.222222222222223)"/><use xlink:href="#H" transform="matrix(1,0,0,1,-524.5432098765431,1310.5642993152057) translate(14.814814814814817 14.222222222222223)"/><use xlink:href="#I" transform="matrix(1,0,0,1,-524.5432098765431,1310.5642993152057) translate(29.629629629629633 14.222222222222223)"/><path d="M-400.4 1004.63H37.5" stroke="#5e5e5e" stroke-width="2" fill="none"/><path d="M-400.36 1005.63h-1.1l.18-.4-.28-1.6h1.2M38.5 1005.63h-1.03v-2h1.03" fill="#5e5e5e"/><use xlink:href="#G" transform="matrix(1,0,0,1,-199.71604241847785,1008.6324999999999) translate(0 14.222222222222223)"/><use xlink:href="#H" transform="matrix(1,0,0,1,-199.71604241847785,1008.6324999999999) translate(14.814814814814817 14.222222222222223)"/><use xlink:href="#I" transform="matrix(1,0,0,1,-199.71604241847785,1008.6324999999999) translate(29.629629629629633 14.222222222222223)"/><path d="M-724.8 1239.6c2.65-2 6.95-2 9.6 0l70.4 52.8c2.65 2 2.65 5.2 0 7.2l-70.4 52.8c-2.65 2-6.95 2-9.6 0l-70.4-52.8c-2.65-2-2.65-5.2 0-7.2z" stroke="#5e5e5e" stroke-width="3" fill="#fff"/><use xlink:href="#Y" transform="matrix(1,0,0,1,-795,1241) translate(34.35685185185185 59.02777777777778)"/><path d="M-720 1235.67V875" stroke="#5e5e5e" stroke-width="2" fill="none"/><path d="M-719 1236.7l-2-.05v-1h2M-719 875.03h-2V874h2" fill="#5e5e5e"/><use xlink:href="#G" transform="matrix(1,0,0,1,-767.5061728395062,1044.6686173514609) translate(0 14.222222222222223)"/><use xlink:href="#H" transform="matrix(1,0,0,1,-767.5061728395062,1044.6686173514609) translate(14.814814814814817 14.222222222222223)"/><use xlink:href="#M" transform="matrix(1,0,0,1,-767.5061728395062,1044.6686173514609) translate(29.629629629629633 14.222222222222223)"/><path d="M-720 1356.33v237.47c0 3.32 2.7 6 6 6h91.5" stroke="#5e5e5e" stroke-width="2" fill="none"/><path d="M-719 1355.35v1h-2v-1.04M-621.5 1600.8h-1.03v-2h1.03" fill="#5e5e5e"/><use xlink:href="#G" transform="matrix(1,0,0,1,-764.5432098765432,1532.139343427293) translate(0 14.222222222222223)"/><use xlink:href="#H" transform="matrix(1,0,0,1,-764.5432098765432,1532.139343427293) translate(14.814814814814817 14.222222222222223)"/><use xlink:href="#I" transform="matrix(1,0,0,1,-764.5432098765432,1532.139343427293) translate(29.629629629629633 14.222222222222223)"/><path d="M-304.8 779.1c2.65-2 6.95-2 9.6 0l70.4 52.8c2.65 2 2.65 5.2 0 7.2l-70.4 52.8c-2.65 2-6.95 2-9.6 0l-70.4-52.8c-2.65-2-2.65-5.2 0-7.2z" stroke="#5e5e5e" stroke-width="3" fill="#fff"/><use xlink:href="#Z" transform="matrix(1,0,0,1,-375,780.5) translate(18.95561728395061 59.02777777777778)"/><path d="M-379.6 835.5h-237.9" stroke="#5e5e5e" stroke-width="2" fill="none"/><path d="M-378.72 834.9l.28 1.6h-1.2v-2h1.1M-617.47 836.5h-1.03v-2h1.03" fill="#5e5e5e"/><g><use xlink:href="#L" transform="matrix(1,0,0,1,-518.3086489395467,810.1666666666667) translate(0 14.222222222222223)"/><use xlink:href="#H" transform="matrix(1,0,0,1,-518.3086489395467,810.1666666666667) translate(14.814814814814817 14.222222222222223)"/><use xlink:href="#M" transform="matrix(1,0,0,1,-518.3086489395467,810.1666666666667) translate(29.629629629629633 14.222222222222223)"/></g><path d="M-220.4 835.5H37.5" stroke="#5e5e5e" stroke-width="2" fill="none"/><path d="M-220.36 836.5h-1.1l.18-.4-.28-1.6h1.2M38.5 836.5h-1.03v-2h1.03" fill="#5e5e5e"/><g><use xlink:href="#G" transform="matrix(1,0,0,1,-109.71604241847793,810.1666666666667) translate(0 14.222222222222223)"/><use xlink:href="#H" transform="matrix(1,0,0,1,-109.71604241847793,810.1666666666667) translate(14.814814814814817 14.222222222222223)"/><use xlink:href="#I" transform="matrix(1,0,0,1,-109.71604241847793,810.1666666666667) translate(29.629629629629633 14.222222222222223)"/></g><path d="M-1020 1263.33c0-3.3 2.7-6 6-6h128c3.3 0 6 2.7 6 6v65.34c0 3.3-2.7 6-6 6h-128c-3.3 0-6-2.7-6-6z" stroke="#5e5e5e" stroke-width="3" fill="#fff"/><g><use xlink:href="#aa" transform="matrix(1,0,0,1,-1008,1269.3333333333333) translate(8.061728395061735 17.77777777777778)"/><use xlink:href="#ab" transform="matrix(1,0,0,1,-1008,1269.3333333333333) translate(61.086419753086425 17.77777777777778)"/><use xlink:href="#ac" transform="matrix(1,0,0,1,-1008,1269.3333333333333) translate(11.73456790123457 44.44444444444444)"/><use xlink:href="#ad" transform="matrix(1,0,0,1,-1008,1269.3333333333333) translate(57.41358024691358 44.44444444444444)"/></g><path d="M-799.6 1296h-3.9m-7.8 0h-7.78m-7.8 0h-7.78m-7.8 0h-7.78m-7.8 0h-7.78m-7.8 0h-3.88" stroke="#5e5e5e" stroke-width="2" fill="none"/><path d="M-798.72 1295.4l.28 1.6h-1.2v-2h1.1M-877.47 1297h-1.03v-2h1.03" fill="#5e5e5e"/><path d="M-337.5 1603.5h182.47c.02 0 .03 0 .03-.03 0 0 0-.02.03-.02h159" stroke="#5e5e5e" stroke-width="2" fill="none"/><path d="M-337.47 1604.5h-1.03v-2h1.03" fill="#5e5e5e"/><path d="M26.54 1603.45l-21.52 12.72v-25.45z" stroke="#5e5e5e" stroke-width="2" fill="#fff"/><path d="M-580 2029c0-3.3 2.7-6 6-6h188c3.3 0 6 2.7 6 6v136c0 3.3-2.7 6-6 6h-188c-3.3 0-6-2.7-6-6z" fill="#fff"/><path d="M-580 1983h200v40h-200z" fill="#ccc"/><path d="M-580 1989c0-3.3 2.7-6 6-6h188c3.3 0 6 2.7 6 6v176c0 3.3-2.7 6-6 6h-188c-3.3 0-6-2.7-6-6zM-580 2023h200" stroke="#5e5e5e" stroke-width="3" fill="none"/><g><use xlink:href="#ae" transform="matrix(1,0,0,1,-570,1983) translate(62.25308641975309 24.444444444444443)"/></g><g><use xlink:href="#k" transform="matrix(1,0,0,1,-575,2025.5) translate(0 20.444444444444443)"/></g><g><use xlink:href="#c" transform="matrix(1,0,0,1,-575,2062.5) translate(0 20.444444444444443)"/></g><g><use xlink:href="#z" transform="matrix(1,0,0,1,-575,2099.5) translate(0 20.444444444444443)"/></g><g><use xlink:href="#af" transform="matrix(1,0,0,1,-575,2136.5) translate(0 20.444444444444443)"/></g><path d="M-484.8 1763.6c2.65-2 6.95-2 9.6 0l70.4 52.8c2.65 2 2.65 5.2 0 7.2l-70.4 52.8c-2.65 2-6.95 2-9.6 0l-70.4-52.8c-2.65-2-2.65-5.2 0-7.2z" stroke="#5e5e5e" stroke-width="3" fill="#fff"/><g><use xlink:href="#ag" transform="matrix(1,0,0,1,-555,1765) translate(51.548209876543204 59.02777777777778)"/></g><path d="M-480 1880.33v100.17" stroke="#5e5e5e" stroke-width="2" fill="none"/><path d="M-479 1879.35v1h-2v-1.04M-479 1981.5h-2v-1.03h2" fill="#5e5e5e"/><g><use xlink:href="#G" transform="matrix(1,0,0,1,-472,1919.748049315206) translate(0 14.222222222222223)"/><use xlink:href="#H" transform="matrix(1,0,0,1,-472,1919.748049315206) translate(14.814814814814817 14.222222222222223)"/><use xlink:href="#I" transform="matrix(1,0,0,1,-472,1919.748049315206) translate(29.629629629629633 14.222222222222223)"/></g><path d="M-480 1759.67V1659.5" stroke="#5e5e5e" stroke-width="2" fill="none"/><path d="M-479 1760.7l-2-.05v-1h2M-479 1659.53h-2v-1.03h2" fill="#5e5e5e"/><g><use xlink:href="#L" transform="matrix(1,0,0,1,-472,1698.9186173514609) translate(0 14.222222222222223)"/><use xlink:href="#H" transform="matrix(1,0,0,1,-472,1698.9186173514609) translate(14.814814814814817 14.222222222222223)"/><use xlink:href="#M" transform="matrix(1,0,0,1,-472,1698.9186173514609) translate(29.629629629629633 14.222222222222223)"/></g><path d="M1020 822.83c0-3.3 2.7-6 6-6h128c3.3 0 6 2.7 6 6v65.34c0 3.3-2.7 6-6 6h-128c-3.3 0-6-2.7-6-6z" stroke="#5e5e5e" stroke-width="3" fill="#fff"/><g><use xlink:href="#ah" transform="matrix(1,0,0,1,1032,828.8333333333333) translate(32.75308641975309 17.77777777777778)"/><use xlink:href="#ai" transform="matrix(1,0,0,1,1032,828.8333333333333) translate(16.672839506172842 44.44444444444444)"/></g><path d="M919.6 855.5h4.03m8.05 0h8.05m8.04 0h8.05m8.05 0h4.02l.46-.2.2-.47.2-.47.46-.2h4.03m8.04 0h8.04m8.04 0h8.05m8.05 0h4.02" stroke="#5e5e5e" stroke-width="2" fill="none"/><path d="M919.64 856.5h-1.1l.18-.4-.28-1.6h1.2M1018.5 855.17h-1.03v-2h1.03" fill="#5e5e5e"/><defs><path fill="#333" d="M160-131c35 5 61 23 61 61C221 17 115-2 30 0v-248c76 3 177-17 177 60 0 33-19 50-47 57zm-97-11c50-1 110 9 110-42 0-47-63-36-110-37v79zm0 115c55-2 124 14 124-45 0-56-70-42-124-44v89" id="aj"/><path fill="#333" d="M100-194c62-1 85 37 85 99 1 63-27 99-86 99S16-35 15-95c0-66 28-99 85-99zM99-20c44 1 53-31 53-75 0-43-8-75-51-75s-53 32-53 75 10 74 51 75" id="ak"/><path fill="#333" d="M143 0L79-87 56-68V0H24v-261h32v163l83-92h37l-77 82L181 0h-38" id="al"/><g id="a"><use transform="matrix(0.06172839506172839,0,0,0.06172839506172839,0,0)" xlink:href="#aj"/><use transform="matrix(0.06172839506172839,0,0,0.06172839506172839,14.814814814814813,0)" xlink:href="#ak"/><use transform="matrix(0.06172839506172839,0,0,0.06172839506172839,27.160493827160494,0)" xlink:href="#ak"/><use transform="matrix(0.06172839506172839,0,0,0.06172839506172839,39.50617283950617,0)" xlink:href="#al"/></g><path fill="#333" d="M33 0v-248h34V0H33" id="am"/><path fill="#333" d="M185-189c-5-48-123-54-124 2 14 75 158 14 163 119 3 78-121 87-175 55-17-10-28-26-33-46l33-7c5 56 141 63 141-1 0-78-155-14-162-118-5-82 145-84 179-34 5 7 8 16 11 25" id="an"/><path fill="#333" d="M190 0L58-211 59 0H30v-248h39L202-35l-2-213h31V0h-41" id="ao"/><g id="b"><use transform="matrix(0.06172839506172839,0,0,0.06172839506172839,0,0)" xlink:href="#am"/><use transform="matrix(0.06172839506172839,0,0,0.06172839506172839,6.172839506172839,0)" xlink:href="#an"/><use transform="matrix(0.06172839506172839,0,0,0.06172839506172839,20.98765432098765,0)" xlink:href="#aj"/><use transform="matrix(0.06172839506172839,0,0,0.06172839506172839,35.80246913580247,0)" xlink:href="#ao"/><path fill="#333" d="M-1.1 1.54h54v1.63h-54z"/></g><path fill="#333" d="M117-194c89-4 53 116 60 194h-32v-121c0-31-8-49-39-48C34-167 62-67 57 0H25l-1-190h30c1 10-1 24 2 32 11-22 29-35 61-36" id="ap"/><path fill="#333" d="M141-36C126-15 110 5 73 4 37 3 15-17 15-53c-1-64 63-63 125-63 3-35-9-54-41-54-24 1-41 7-42 31l-33-3c5-37 33-52 76-52 45 0 72 20 72 64v82c-1 20 7 32 28 27v20c-31 9-61-2-59-35zM48-53c0 20 12 33 32 33 41-3 63-29 60-74-43 2-92-5-92 41" id="aq"/><path fill="#333" d="M210-169c-67 3-38 105-44 169h-31v-121c0-29-5-50-35-48C34-165 62-65 56 0H25l-1-190h30c1 10-1 24 2 32 10-44 99-50 107 0 11-21 27-35 58-36 85-2 47 119 55 194h-31v-121c0-29-5-49-35-48" id="ar"/><path fill="#333" d="M100-194c63 0 86 42 84 106H49c0 40 14 67 53 68 26 1 43-12 49-29l28 8c-11 28-37 45-77 45C44 4 14-33 15-96c1-61 26-98 85-98zm52 81c6-60-76-77-97-28-3 7-6 17-6 28h103" id="as"/><g id="c"><use transform="matrix(0.06172839506172839,0,0,0.06172839506172839,0,0)" xlink:href="#ap"/><use transform="matrix(0.06172839506172839,0,0,0.06172839506172839,12.345679012345679,0)" xlink:href="#aq"/><use transform="matrix(0.06172839506172839,0,0,0.06172839506172839,24.691358024691358,0)" xlink:href="#ar"/><use transform="matrix(0.06172839506172839,0,0,0.06172839506172839,43.148148148148145,0)" xlink:href="#as"/></g><path fill="#333" d="M85-194c31 0 48 13 60 33l-1-100h32l1 261h-30c-2-10 0-23-3-31C134-8 116 4 85 4 32 4 16-35 15-94c0-66 23-100 70-100zm9 24c-40 0-46 34-46 75 0 40 6 74 45 74 42 0 51-32 51-76 0-42-9-74-50-73" id="at"/><path fill="#333" d="M24-231v-30h32v30H24zM24 0v-190h32V0H24" id="au"/><path fill="#333" d="M59-47c-2 24 18 29 38 22v24C64 9 27 4 27-40v-127H5v-23h24l9-43h21v43h35v23H59v120" id="av"/><g id="d"><use transform="matrix(0.06172839506172839,0,0,0.06172839506172839,0,0)" xlink:href="#as"/><use transform="matrix(0.06172839506172839,0,0,0.06172839506172839,12.345679012345679,0)" xlink:href="#at"/><use transform="matrix(0.06172839506172839,0,0,0.06172839506172839,24.691358024691358,0)" xlink:href="#au"/><use transform="matrix(0.06172839506172839,0,0,0.06172839506172839,29.5679012345679,0)" xlink:href="#av"/><use transform="matrix(0.06172839506172839,0,0,0.06172839506172839,35.74074074074074,0)" xlink:href="#au"/><use transform="matrix(0.06172839506172839,0,0,0.06172839506172839,40.617283950617285,0)" xlink:href="#ak"/><use transform="matrix(0.06172839506172839,0,0,0.06172839506172839,52.96296296296296,0)" xlink:href="#ap"/></g><path fill="#333" d="M114-163C36-179 61-72 57 0H25l-1-190h30c1 12-1 29 2 39 6-27 23-49 58-41v29" id="aw"/><path fill="#333" d="M24 0v-261h32V0H24" id="ax"/><path fill="#333" d="M135-143c-3-34-86-38-87 0 15 53 115 12 119 90S17 21 10-45l28-5c4 36 97 45 98 0-10-56-113-15-118-90-4-57 82-63 122-42 12 7 21 19 24 35" id="ay"/><path fill="#333" d="M-5 72V49h209v23H-5" id="az"/><g id="e"><use transform="matrix(0.06172839506172839,0,0,0.06172839506172839,0,0)" xlink:href="#aw"/><use transform="matrix(0.06172839506172839,0,0,0.06172839506172839,7.345679012345679,0)" xlink:href="#as"/><use transform="matrix(0.06172839506172839,0,0,0.06172839506172839,19.691358024691358,0)" xlink:href="#ax"/><use transform="matrix(0.06172839506172839,0,0,0.06172839506172839,24.5679012345679,0)" xlink:href="#as"/><use transform="matrix(0.06172839506172839,0,0,0.06172839506172839,36.913580246913575,0)" xlink:href="#aq"/><use transform="matrix(0.06172839506172839,0,0,0.06172839506172839,49.25925925925925,0)" xlink:href="#ay"/><use transform="matrix(0.06172839506172839,0,0,0.06172839506172839,60.37037037037037,0)" xlink:href="#as"/><use transform="matrix(0.06172839506172839,0,0,0.06172839506172839,72.71604938271605,0)" xlink:href="#az"/><use transform="matrix(0.06172839506172839,0,0,0.06172839506172839,85.06172839506173,0)" xlink:href="#at"/><use transform="matrix(0.06172839506172839,0,0,0.06172839506172839,97.40740740740742,0)" xlink:href="#aq"/><use transform="matrix(0.06172839506172839,0,0,0.06172839506172839,109.7530864197531,0)" xlink:href="#av"/><use transform="matrix(0.06172839506172839,0,0,0.06172839506172839,115.92592592592594,0)" xlink:href="#as"/></g><path fill="#333" d="M115-194c55 1 70 41 70 98S169 2 115 4C84 4 66-9 55-30l1 105H24l-1-265h31l2 30c10-21 28-34 59-34zm-8 174c40 0 45-34 45-75s-6-73-45-74c-42 0-51 32-51 76 0 43 10 73 51 73" id="aA"/><path fill="#333" d="M96-169c-40 0-48 33-48 73s9 75 48 75c24 0 41-14 43-38l32 2c-6 37-31 61-74 61-59 0-76-41-82-99-10-93 101-131 147-64 4 7 5 14 7 22l-32 3c-4-21-16-35-41-35" id="aB"/><g id="f"><use transform="matrix(0.06172839506172839,0,0,0.06172839506172839,0,0)" xlink:href="#aA"/><use transform="matrix(0.06172839506172839,0,0,0.06172839506172839,12.345679012345679,0)" xlink:href="#aw"/><use transform="matrix(0.06172839506172839,0,0,0.06172839506172839,19.691358024691358,0)" xlink:href="#au"/><use transform="matrix(0.06172839506172839,0,0,0.06172839506172839,24.5679012345679,0)" xlink:href="#aB"/><use transform="matrix(0.06172839506172839,0,0,0.06172839506172839,35.67901234567901,0)" xlink:href="#as"/></g><path fill="#333" d="M177-190C167-65 218 103 67 71c-23-6-38-20-44-43l32-5c15 47 100 32 89-28v-30C133-14 115 1 83 1 29 1 15-40 15-95c0-56 16-97 71-98 29-1 48 16 59 35 1-10 0-23 2-32h30zM94-22c36 0 50-32 50-73 0-42-14-75-50-75-39 0-46 34-46 75s6 73 46 73" id="aC"/><path fill="#333" d="M84 4C-5 8 30-112 23-190h32v120c0 31 7 50 39 49 72-2 45-101 50-169h31l1 190h-30c-1-10 1-25-2-33-11 22-28 36-60 37" id="aD"/><g id="g"><use transform="matrix(0.06172839506172839,0,0,0.06172839506172839,0,0)" xlink:href="#aA"/><use transform="matrix(0.06172839506172839,0,0,0.06172839506172839,12.345679012345679,0)" xlink:href="#aq"/><use transform="matrix(0.06172839506172839,0,0,0.06172839506172839,24.691358024691358,0)" xlink:href="#aC"/><use transform="matrix(0.06172839506172839,0,0,0.06172839506172839,37.03703703703704,0)" xlink:href="#as"/><use transform="matrix(0.06172839506172839,0,0,0.06172839506172839,49.382716049382715,0)" xlink:href="#az"/><use transform="matrix(0.06172839506172839,0,0,0.06172839506172839,61.72839506172839,0)" xlink:href="#aB"/><use transform="matrix(0.06172839506172839,0,0,0.06172839506172839,72.8395061728395,0)" xlink:href="#ak"/><use transform="matrix(0.06172839506172839,0,0,0.06172839506172839,85.18518518518519,0)" xlink:href="#aD"/><use transform="matrix(0.06172839506172839,0,0,0.06172839506172839,97.53086419753087,0)" xlink:href="#ap"/><use transform="matrix(0.06172839506172839,0,0,0.06172839506172839,109.87654320987656,0)" xlink:href="#av"/></g><path fill="#333" d="M39-94c74 12-11 154 75 146v23c-44 4-70-10-70-52C44-23 55-84 6-82v-22c81 4-7-162 84-157h24v23c-82-15-2 131-75 144" id="aE"/><path fill="#333" d="M179-190L93 31C79 59 56 82 12 73V49c39 6 53-20 64-50L1-190h34L92-34l54-156h33" id="aF"/><path fill="#333" d="M76-40C78 24 84 88 6 75V52C86 64 9-79 80-94c-40-6-34-59-34-106 1-29-11-41-40-38v-23c44-4 70 10 70 52 0 47-12 108 38 105v22c-26 1-39 14-38 42" id="aG"/><g id="h"><use transform="matrix(0.06172839506172839,0,0,0.06172839506172839,0,0)" xlink:href="#aE"/><use transform="matrix(0.06172839506172839,0,0,0.06172839506172839,7.4074074074074066,0)" xlink:href="#av"/><use transform="matrix(0.06172839506172839,0,0,0.06172839506172839,13.580246913580247,0)" xlink:href="#aF"/><use transform="matrix(0.06172839506172839,0,0,0.06172839506172839,24.691358024691358,0)" xlink:href="#aA"/><use transform="matrix(0.06172839506172839,0,0,0.06172839506172839,37.03703703703704,0)" xlink:href="#as"/><use transform="matrix(0.06172839506172839,0,0,0.06172839506172839,49.382716049382715,0)" xlink:href="#aG"/></g><path fill="#333" d="M145-31C134-9 116 4 85 4 32 4 16-35 15-94c0-59 17-99 70-100 32-1 48 14 60 33 0-11-1-24 2-32h30l-1 268h-32zM93-21c41 0 51-33 51-76s-8-73-50-73c-40 0-46 35-46 75s5 74 45 74" id="aH"/><g id="i"><use transform="matrix(0.06172839506172839,0,0,0.06172839506172839,0,0)" xlink:href="#aH"/><use transform="matrix(0.06172839506172839,0,0,0.06172839506172839,12.345679012345679,0)" xlink:href="#aD"/><use transform="matrix(0.06172839506172839,0,0,0.06172839506172839,24.691358024691358,0)" xlink:href="#aq"/><use transform="matrix(0.06172839506172839,0,0,0.06172839506172839,37.03703703703704,0)" xlink:href="#ap"/><use transform="matrix(0.06172839506172839,0,0,0.06172839506172839,49.382716049382715,0)" xlink:href="#av"/><use transform="matrix(0.06172839506172839,0,0,0.06172839506172839,55.55555555555556,0)" xlink:href="#au"/><use transform="matrix(0.06172839506172839,0,0,0.06172839506172839,60.4320987654321,0)" xlink:href="#av"/><use transform="matrix(0.06172839506172839,0,0,0.06172839506172839,66.60493827160494,0)" xlink:href="#aF"/></g><g id="j"><use transform="matrix(0.06172839506172839,0,0,0.06172839506172839,0,0)" xlink:href="#am"/><use transform="matrix(0.06172839506172839,0,0,0.06172839506172839,6.172839506172839,0)" xlink:href="#av"/><use transform="matrix(0.06172839506172839,0,0,0.06172839506172839,12.345679012345679,0)" xlink:href="#as"/><use transform="matrix(0.06172839506172839,0,0,0.06172839506172839,24.691358024691358,0)" xlink:href="#ar"/><use transform="matrix(0.06172839506172839,0,0,0.06172839506172839,43.148148148148145,0)" xlink:href="#ay"/></g><path fill="#333" d="M30-248c118-7 216 8 213 122C240-48 200 0 122 0H30v-248zM63-27c89 8 146-16 146-99s-60-101-146-95v194" id="aI"/><g id="k"><use transform="matrix(0.06172839506172839,0,0,0.06172839506172839,0,0)" xlink:href="#am"/><use transform="matrix(0.06172839506172839,0,0,0.06172839506172839,6.172839506172839,0)" xlink:href="#aI"/><path fill="#333" d="M-1.1 1.54h24.37v1.63H-1.1z"/></g><path fill="#333" d="M115-194c53 0 69 39 70 98 0 66-23 100-70 100C84 3 66-7 56-30L54 0H23l1-261h32v101c10-23 28-34 59-34zm-8 174c40 0 45-34 45-75 0-40-5-75-45-74-42 0-51 32-51 76 0 43 10 73 51 73" id="aJ"/><g id="l"><use transform="matrix(0.06172839506172839,0,0,0.06172839506172839,0,0)" xlink:href="#an"/><use transform="matrix(0.06172839506172839,0,0,0.06172839506172839,14.814814814814813,0)" xlink:href="#aD"/><use transform="matrix(0.06172839506172839,0,0,0.06172839506172839,27.160493827160494,0)" xlink:href="#aJ"/><use transform="matrix(0.06172839506172839,0,0,0.06172839506172839,39.50617283950617,0)" xlink:href="#ay"/><use transform="matrix(0.06172839506172839,0,0,0.06172839506172839,50.61728395061728,0)" xlink:href="#aB"/><use transform="matrix(0.06172839506172839,0,0,0.06172839506172839,61.72839506172839,0)" xlink:href="#aw"/><use transform="matrix(0.06172839506172839,0,0,0.06172839506172839,69.07407407407408,0)" xlink:href="#au"/><use transform="matrix(0.06172839506172839,0,0,0.06172839506172839,73.95061728395062,0)" xlink:href="#aJ"/><use transform="matrix(0.06172839506172839,0,0,0.06172839506172839,86.2962962962963,0)" xlink:href="#as"/><use transform="matrix(0.06172839506172839,0,0,0.06172839506172839,98.64197530864199,0)" xlink:href="#aw"/></g><path fill="#333" d="M106-169C34-169 62-67 57 0H25v-261h32l-1 103c12-21 28-36 61-36 89 0 53 116 60 194h-32v-121c2-32-8-49-39-48" id="aK"/><g id="m"><use transform="matrix(0.06172839506172839,0,0,0.06172839506172839,0,0)" xlink:href="#ar"/><use transform="matrix(0.06172839506172839,0,0,0.06172839506172839,18.456790123456788,0)" xlink:href="#as"/><use transform="matrix(0.06172839506172839,0,0,0.06172839506172839,30.80246913580247,0)" xlink:href="#ar"/><use transform="matrix(0.06172839506172839,0,0,0.06172839506172839,49.25925925925925,0)" xlink:href="#aJ"/><use transform="matrix(0.06172839506172839,0,0,0.06172839506172839,61.60493827160493,0)" xlink:href="#as"/><use transform="matrix(0.06172839506172839,0,0,0.06172839506172839,73.9506172839506,0)" xlink:href="#aw"/><use transform="matrix(0.06172839506172839,0,0,0.06172839506172839,81.29629629629629,0)" xlink:href="#ay"/><use transform="matrix(0.06172839506172839,0,0,0.06172839506172839,92.4074074074074,0)" xlink:href="#aK"/><use transform="matrix(0.06172839506172839,0,0,0.06172839506172839,104.75308641975309,0)" xlink:href="#au"/><use transform="matrix(0.06172839506172839,0,0,0.06172839506172839,109.62962962962963,0)" xlink:href="#aA"/><use transform="matrix(0.06172839506172839,0,0,0.06172839506172839,121.97530864197532,0)" xlink:href="#az"/><use transform="matrix(0.06172839506172839,0,0,0.06172839506172839,134.320987654321,0)" xlink:href="#aJ"/><use transform="matrix(0.06172839506172839,0,0,0.06172839506172839,146.66666666666666,0)" xlink:href="#ak"/><use transform="matrix(0.06172839506172839,0,0,0.06172839506172839,159.01234567901233,0)" xlink:href="#aD"/><use transform="matrix(0.06172839506172839,0,0,0.06172839506172839,171.358024691358,0)" xlink:href="#aC"/><use transform="matrix(0.06172839506172839,0,0,0.06172839506172839,183.70370370370367,0)" xlink:href="#aK"/><use transform="matrix(0.06172839506172839,0,0,0.06172839506172839,196.04938271604934,0)" xlink:href="#av"/><use transform="matrix(0.06172839506172839,0,0,0.06172839506172839,202.22222222222217,0)" xlink:href="#az"/><use transform="matrix(0.06172839506172839,0,0,0.06172839506172839,214.56790123456784,0)" xlink:href="#ak"/><use transform="matrix(0.06172839506172839,0,0,0.06172839506172839,226.9135802469135,0)" xlink:href="#ap"/></g><path fill="#333" d="M212-179c-10-28-35-45-73-45-59 0-87 40-87 99 0 60 29 101 89 101 43 0 62-24 78-52l27 14C228-24 195 4 139 4 59 4 22-46 18-125c-6-104 99-153 187-111 19 9 31 26 39 46" id="aL"/><g id="n"><use transform="matrix(0.06172839506172839,0,0,0.06172839506172839,0,0)" xlink:href="#aL"/><use transform="matrix(0.06172839506172839,0,0,0.06172839506172839,15.987654320987653,0)" xlink:href="#aD"/><use transform="matrix(0.06172839506172839,0,0,0.06172839506172839,28.333333333333332,0)" xlink:href="#ay"/><use transform="matrix(0.06172839506172839,0,0,0.06172839506172839,39.44444444444444,0)" xlink:href="#av"/><use transform="matrix(0.06172839506172839,0,0,0.06172839506172839,45.617283950617285,0)" xlink:href="#ak"/><use transform="matrix(0.06172839506172839,0,0,0.06172839506172839,57.96296296296296,0)" xlink:href="#ar"/><use transform="matrix(0.06172839506172839,0,0,0.06172839506172839,76.41975308641975,0)" xlink:href="#as"/><use transform="matrix(0.06172839506172839,0,0,0.06172839506172839,88.76543209876543,0)" xlink:href="#aw"/></g><g id="o"><use transform="matrix(0.06172839506172839,0,0,0.06172839506172839,0,0)" xlink:href="#aq"/><use transform="matrix(0.06172839506172839,0,0,0.06172839506172839,12.345679012345679,0)" xlink:href="#at"/><use transform="matrix(0.06172839506172839,0,0,0.06172839506172839,24.691358024691358,0)" xlink:href="#at"/><use transform="matrix(0.06172839506172839,0,0,0.06172839506172839,37.03703703703704,0)" xlink:href="#aw"/><use transform="matrix(0.06172839506172839,0,0,0.06172839506172839,44.382716049382715,0)" xlink:href="#as"/><use transform="matrix(0.06172839506172839,0,0,0.06172839506172839,56.72839506172839,0)" xlink:href="#ay"/><use transform="matrix(0.06172839506172839,0,0,0.06172839506172839,67.8395061728395,0)" xlink:href="#ay"/></g><g id="p"><use transform="matrix(0.06172839506172839,0,0,0.06172839506172839,0,0)" xlink:href="#aE"/><use transform="matrix(0.06172839506172839,0,0,0.06172839506172839,7.4074074074074066,0)" xlink:href="#aB"/><use transform="matrix(0.06172839506172839,0,0,0.06172839506172839,18.51851851851852,0)" xlink:href="#ak"/><use transform="matrix(0.06172839506172839,0,0,0.06172839506172839,30.864197530864196,0)" xlink:href="#ap"/><use transform="matrix(0.06172839506172839,0,0,0.06172839506172839,43.20987654320987,0)" xlink:href="#av"/><use transform="matrix(0.06172839506172839,0,0,0.06172839506172839,49.382716049382715,0)" xlink:href="#aq"/><use transform="matrix(0.06172839506172839,0,0,0.06172839506172839,61.72839506172839,0)" xlink:href="#aB"/><use transform="matrix(0.06172839506172839,0,0,0.06172839506172839,72.8395061728395,0)" xlink:href="#av"/><use transform="matrix(0.06172839506172839,0,0,0.06172839506172839,79.01234567901234,0)" xlink:href="#az"/><use transform="matrix(0.06172839506172839,0,0,0.06172839506172839,91.35802469135803,0)" xlink:href="#ap"/><use transform="matrix(0.06172839506172839,0,0,0.06172839506172839,103.70370370370371,0)" xlink:href="#aD"/><use transform="matrix(0.06172839506172839,0,0,0.06172839506172839,116.0493827160494,0)" xlink:href="#ar"/><use transform="matrix(0.06172839506172839,0,0,0.06172839506172839,134.50617283950618,0)" xlink:href="#aJ"/><use transform="matrix(0.06172839506172839,0,0,0.06172839506172839,146.85185185185185,0)" xlink:href="#as"/><use transform="matrix(0.06172839506172839,0,0,0.06172839506172839,159.19753086419752,0)" xlink:href="#aw"/><use transform="matrix(0.06172839506172839,0,0,0.06172839506172839,166.5432098765432,0)" xlink:href="#aG"/></g><g id="q"><use transform="matrix(0.06172839506172839,0,0,0.06172839506172839,0,0)" xlink:href="#as"/><use transform="matrix(0.06172839506172839,0,0,0.06172839506172839,12.345679012345679,0)" xlink:href="#ar"/><use transform="matrix(0.06172839506172839,0,0,0.06172839506172839,30.80246913580247,0)" xlink:href="#aq"/><use transform="matrix(0.06172839506172839,0,0,0.06172839506172839,43.148148148148145,0)" xlink:href="#au"/><use transform="matrix(0.06172839506172839,0,0,0.06172839506172839,48.02469135802469,0)" xlink:href="#ax"/></g><g id="r"><use transform="matrix(0.06172839506172839,0,0,0.06172839506172839,0,0)" xlink:href="#aq"/><use transform="matrix(0.06172839506172839,0,0,0.06172839506172839,12.345679012345679,0)" xlink:href="#aB"/><use transform="matrix(0.06172839506172839,0,0,0.06172839506172839,23.45679012345679,0)" xlink:href="#aB"/><use transform="matrix(0.06172839506172839,0,0,0.06172839506172839,34.5679012345679,0)" xlink:href="#ak"/><use transform="matrix(0.06172839506172839,0,0,0.06172839506172839,46.913580246913575,0)" xlink:href="#aD"/><use transform="matrix(0.06172839506172839,0,0,0.06172839506172839,59.25925925925925,0)" xlink:href="#ap"/><use transform="matrix(0.06172839506172839,0,0,0.06172839506172839,71.60493827160494,0)" xlink:href="#av"/><use transform="matrix(0.06172839506172839,0,0,0.06172839506172839,77.77777777777777,0)" xlink:href="#az"/><use transform="matrix(0.06172839506172839,0,0,0.06172839506172839,90.12345679012346,0)" xlink:href="#aB"/><use transform="matrix(0.06172839506172839,0,0,0.06172839506172839,101.23456790123457,0)" xlink:href="#aw"/><use transform="matrix(0.06172839506172839,0,0,0.06172839506172839,108.58024691358025,0)" xlink:href="#as"/><use transform="matrix(0.06172839506172839,0,0,0.06172839506172839,120.92592592592594,0)" xlink:href="#aq"/><use transform="matrix(0.06172839506172839,0,0,0.06172839506172839,133.27160493827162,0)" xlink:href="#av"/><use transform="matrix(0.06172839506172839,0,0,0.06172839506172839,139.44444444444446,0)" xlink:href="#as"/><use transform="matrix(0.06172839506172839,0,0,0.06172839506172839,151.79012345679013,0)" xlink:href="#at"/><use transform="matrix(0.06172839506172839,0,0,0.06172839506172839,164.1358024691358,0)" xlink:href="#az"/><use transform="matrix(0.06172839506172839,0,0,0.06172839506172839,176.48148148148147,0)" xlink:href="#ak"/><use transform="matrix(0.06172839506172839,0,0,0.06172839506172839,188.82716049382714,0)" xlink:href="#ap"/></g><path fill="#333" d="M140-251c81 0 123 46 123 126C263-46 219 4 140 4 59 4 17-45 17-125s42-126 123-126zm0 227c63 0 89-41 89-101s-29-99-89-99c-61 0-89 39-89 99S79-25 140-24" id="aM"/><g id="s"><use transform="matrix(0.06172839506172839,0,0,0.06172839506172839,0,0)" xlink:href="#aM"/><use transform="matrix(0.06172839506172839,0,0,0.06172839506172839,17.28395061728395,0)" xlink:href="#aw"/><use transform="matrix(0.06172839506172839,0,0,0.06172839506172839,24.629629629629626,0)" xlink:href="#at"/><use transform="matrix(0.06172839506172839,0,0,0.06172839506172839,36.9753086419753,0)" xlink:href="#as"/><use transform="matrix(0.06172839506172839,0,0,0.06172839506172839,49.32098765432098,0)" xlink:href="#aw"/></g><g id="t"><use transform="matrix(0.06172839506172839,0,0,0.06172839506172839,0,0)" xlink:href="#at"/><use transform="matrix(0.06172839506172839,0,0,0.06172839506172839,12.345679012345679,0)" xlink:href="#aq"/><use transform="matrix(0.06172839506172839,0,0,0.06172839506172839,24.691358024691358,0)" xlink:href="#av"/><use transform="matrix(0.06172839506172839,0,0,0.06172839506172839,30.864197530864196,0)" xlink:href="#as"/></g><path fill="#333" d="M87 75C49 33 22-17 22-94c0-76 28-126 65-167h31c-38 41-64 92-64 168S80 34 118 75H87" id="aN"/><path fill="#333" d="M33-261c38 41 65 92 65 168S71 34 33 75H2C39 34 66-17 66-93S39-220 2-261h31" id="aO"/><g id="u"><use transform="matrix(0.06172839506172839,0,0,0.06172839506172839,0,0)" xlink:href="#av"/><use transform="matrix(0.06172839506172839,0,0,0.06172839506172839,6.172839506172839,0)" xlink:href="#ak"/><use transform="matrix(0.06172839506172839,0,0,0.06172839506172839,18.51851851851852,0)" xlink:href="#av"/><use transform="matrix(0.06172839506172839,0,0,0.06172839506172839,24.691358024691358,0)" xlink:href="#aq"/><use transform="matrix(0.06172839506172839,0,0,0.06172839506172839,37.03703703703704,0)" xlink:href="#ax"/><use transform="matrix(0.06172839506172839,0,0,0.06172839506172839,41.91358024691358,0)" xlink:href="#az"/><use transform="matrix(0.06172839506172839,0,0,0.06172839506172839,54.25925925925926,0)" xlink:href="#aB"/><use transform="matrix(0.06172839506172839,0,0,0.06172839506172839,65.37037037037037,0)" xlink:href="#ak"/><use transform="matrix(0.06172839506172839,0,0,0.06172839506172839,77.71604938271605,0)" xlink:href="#ay"/><use transform="matrix(0.06172839506172839,0,0,0.06172839506172839,88.82716049382717,0)" xlink:href="#av"/><use transform="matrix(0.06172839506172839,0,0,0.06172839506172839,95,0)" xlink:href="#aN"/><use transform="matrix(0.06172839506172839,0,0,0.06172839506172839,102.34567901234568,0)" xlink:href="#aO"/></g><g id="v"><use transform="matrix(0.06172839506172839,0,0,0.06172839506172839,0,0)" xlink:href="#ax"/><use transform="matrix(0.06172839506172839,0,0,0.06172839506172839,4.876543209876543,0)" xlink:href="#ak"/><use transform="matrix(0.06172839506172839,0,0,0.06172839506172839,17.22222222222222,0)" xlink:href="#aB"/><use transform="matrix(0.06172839506172839,0,0,0.06172839506172839,28.333333333333332,0)" xlink:href="#aq"/><use transform="matrix(0.06172839506172839,0,0,0.06172839506172839,40.67901234567901,0)" xlink:href="#av"/><use transform="matrix(0.06172839506172839,0,0,0.06172839506172839,46.851851851851855,0)" xlink:href="#au"/><use transform="matrix(0.06172839506172839,0,0,0.06172839506172839,51.7283950617284,0)" xlink:href="#ak"/><use transform="matrix(0.06172839506172839,0,0,0.06172839506172839,64.07407407407408,0)" xlink:href="#ap"/></g><path fill="#333" d="M101-234c-31-9-42 10-38 44h38v23H63V0H32v-167H5v-23h27c-7-52 17-82 69-68v24" id="aP"/><g id="w"><use transform="matrix(0.06172839506172839,0,0,0.06172839506172839,0,0)" xlink:href="#aM"/><use transform="matrix(0.06172839506172839,0,0,0.06172839506172839,17.28395061728395,0)" xlink:href="#aP"/><use transform="matrix(0.06172839506172839,0,0,0.06172839506172839,23.02469135802469,0)" xlink:href="#aP"/><use transform="matrix(0.06172839506172839,0,0,0.06172839506172839,29.197530864197528,0)" xlink:href="#as"/><use transform="matrix(0.06172839506172839,0,0,0.06172839506172839,41.54320987654321,0)" xlink:href="#aw"/></g><g id="x"><use transform="matrix(0.06172839506172839,0,0,0.06172839506172839,0,0)" xlink:href="#at"/><use transform="matrix(0.06172839506172839,0,0,0.06172839506172839,12.345679012345679,0)" xlink:href="#au"/><use transform="matrix(0.06172839506172839,0,0,0.06172839506172839,17.22222222222222,0)" xlink:href="#ay"/><use transform="matrix(0.06172839506172839,0,0,0.06172839506172839,28.333333333333332,0)" xlink:href="#aB"/><use transform="matrix(0.06172839506172839,0,0,0.06172839506172839,39.44444444444444,0)" xlink:href="#ak"/><use transform="matrix(0.06172839506172839,0,0,0.06172839506172839,51.79012345679012,0)" xlink:href="#aD"/><use transform="matrix(0.06172839506172839,0,0,0.06172839506172839,64.1358024691358,0)" xlink:href="#ap"/><use transform="matrix(0.06172839506172839,0,0,0.06172839506172839,76.48148148148148,0)" xlink:href="#av"/><use transform="matrix(0.06172839506172839,0,0,0.06172839506172839,82.65432098765432,0)" xlink:href="#az"/><use transform="matrix(0.06172839506172839,0,0,0.06172839506172839,95,0)" xlink:href="#aA"/><use transform="matrix(0.06172839506172839,0,0,0.06172839506172839,107.34567901234568,0)" xlink:href="#aB"/><use transform="matrix(0.06172839506172839,0,0,0.06172839506172839,118.4567901234568,0)" xlink:href="#av"/></g><g id="y"><use transform="matrix(0.06172839506172839,0,0,0.06172839506172839,0,0)" xlink:href="#ay"/><use transform="matrix(0.06172839506172839,0,0,0.06172839506172839,11.11111111111111,0)" xlink:href="#av"/><use transform="matrix(0.06172839506172839,0,0,0.06172839506172839,17.28395061728395,0)" xlink:href="#aq"/><use transform="matrix(0.06172839506172839,0,0,0.06172839506172839,29.629629629629626,0)" xlink:href="#aw"/><use transform="matrix(0.06172839506172839,0,0,0.06172839506172839,36.9753086419753,0)" xlink:href="#av"/><use transform="matrix(0.06172839506172839,0,0,0.06172839506172839,43.148148148148145,0)" xlink:href="#az"/><use transform="matrix(0.06172839506172839,0,0,0.06172839506172839,55.49382716049382,0)" xlink:href="#at"/><use transform="matrix(0.06172839506172839,0,0,0.06172839506172839,67.8395061728395,0)" xlink:href="#aq"/><use transform="matrix(0.06172839506172839,0,0,0.06172839506172839,80.18518518518519,0)" xlink:href="#av"/><use transform="matrix(0.06172839506172839,0,0,0.06172839506172839,86.35802469135803,0)" xlink:href="#as"/></g><g id="z"><use transform="matrix(0.06172839506172839,0,0,0.06172839506172839,0,0)" xlink:href="#aA"/><use transform="matrix(0.06172839506172839,0,0,0.06172839506172839,12.345679012345679,0)" xlink:href="#as"/><use transform="matrix(0.06172839506172839,0,0,0.06172839506172839,24.691358024691358,0)" xlink:href="#aw"/><use transform="matrix(0.06172839506172839,0,0,0.06172839506172839,32.03703703703704,0)" xlink:href="#au"/><use transform="matrix(0.06172839506172839,0,0,0.06172839506172839,36.91358024691358,0)" xlink:href="#ak"/><use transform="matrix(0.06172839506172839,0,0,0.06172839506172839,49.25925925925926,0)" xlink:href="#at"/></g><path fill="#333" d="M30-248c87 1 191-15 191 75 0 78-77 80-158 76V0H30v-248zm33 125c57 0 124 11 124-50 0-59-68-47-124-48v98" id="aQ"/><g id="A"><use transform="matrix(0.06172839506172839,0,0,0.06172839506172839,0,0)" xlink:href="#aQ"/><use transform="matrix(0.06172839506172839,0,0,0.06172839506172839,14.814814814814813,0)" xlink:href="#aD"/><use transform="matrix(0.06172839506172839,0,0,0.06172839506172839,27.160493827160494,0)" xlink:href="#aJ"/><use transform="matrix(0.06172839506172839,0,0,0.06172839506172839,39.50617283950617,0)" xlink:href="#ax"/><use transform="matrix(0.06172839506172839,0,0,0.06172839506172839,44.382716049382715,0)" xlink:href="#au"/><use transform="matrix(0.06172839506172839,0,0,0.06172839506172839,49.25925925925926,0)" xlink:href="#ay"/><use transform="matrix(0.06172839506172839,0,0,0.06172839506172839,60.37037037037037,0)" xlink:href="#aK"/><use transform="matrix(0.06172839506172839,0,0,0.06172839506172839,72.71604938271605,0)" xlink:href="#as"/><use transform="matrix(0.06172839506172839,0,0,0.06172839506172839,85.06172839506173,0)" xlink:href="#aw"/></g><g id="B"><use transform="matrix(0.06172839506172839,0,0,0.06172839506172839,0,0)" xlink:href="#ak"/><use transform="matrix(0.06172839506172839,0,0,0.06172839506172839,12.345679012345679,0)" xlink:href="#aP"/><use transform="matrix(0.06172839506172839,0,0,0.06172839506172839,18.08641975308642,0)" xlink:href="#aP"/><use transform="matrix(0.06172839506172839,0,0,0.06172839506172839,24.25925925925926,0)" xlink:href="#au"/><use transform="matrix(0.06172839506172839,0,0,0.06172839506172839,29.135802469135804,0)" xlink:href="#aB"/><use transform="matrix(0.06172839506172839,0,0,0.06172839506172839,40.24691358024691,0)" xlink:href="#as"/><use transform="matrix(0.06172839506172839,0,0,0.06172839506172839,52.59259259259259,0)" xlink:href="#az"/><use transform="matrix(0.06172839506172839,0,0,0.06172839506172839,64.93827160493827,0)" xlink:href="#ax"/><use transform="matrix(0.06172839506172839,0,0,0.06172839506172839,69.81481481481481,0)" xlink:href="#ak"/><use transform="matrix(0.06172839506172839,0,0,0.06172839506172839,82.1604938271605,0)" xlink:href="#aB"/><use transform="matrix(0.06172839506172839,0,0,0.06172839506172839,93.27160493827161,0)" xlink:href="#aq"/><use transform="matrix(0.06172839506172839,0,0,0.06172839506172839,105.61728395061729,0)" xlink:href="#av"/><use transform="matrix(0.06172839506172839,0,0,0.06172839506172839,111.79012345679013,0)" xlink:href="#au"/><use transform="matrix(0.06172839506172839,0,0,0.06172839506172839,116.66666666666667,0)" xlink:href="#ak"/><use transform="matrix(0.06172839506172839,0,0,0.06172839506172839,129.01234567901236,0)" xlink:href="#ap"/></g><path fill="#333" d="M205 0l-28-72H64L36 0H1l101-248h38L239 0h-34zm-38-99l-47-123c-12 45-31 82-46 123h93" id="aR"/><g id="C"><use transform="matrix(0.06172839506172839,0,0,0.06172839506172839,0,0)" xlink:href="#aR"/><use transform="matrix(0.06172839506172839,0,0,0.06172839506172839,14.814814814814813,0)" xlink:href="#aD"/><use transform="matrix(0.06172839506172839,0,0,0.06172839506172839,27.160493827160494,0)" xlink:href="#av"/><use transform="matrix(0.06172839506172839,0,0,0.06172839506172839,33.333333333333336,0)" xlink:href="#aK"/><use transform="matrix(0.06172839506172839,0,0,0.06172839506172839,45.67901234567901,0)" xlink:href="#ak"/><use transform="matrix(0.06172839506172839,0,0,0.06172839506172839,58.02469135802469,0)" xlink:href="#aw"/></g><g id="D"><use transform="matrix(0.06172839506172839,0,0,0.06172839506172839,0,0)" xlink:href="#aI"/><use transform="matrix(0.06172839506172839,0,0,0.06172839506172839,15.987654320987653,0)" xlink:href="#aM"/><use transform="matrix(0.06172839506172839,0,0,0.06172839506172839,33.2716049382716,0)" xlink:href="#aj"/></g><g id="E"><use transform="matrix(0.06172839506172839,0,0,0.06172839506172839,0,0)" xlink:href="#aI"/><use transform="matrix(0.06172839506172839,0,0,0.06172839506172839,15.987654320987653,0)" xlink:href="#aM"/><use transform="matrix(0.06172839506172839,0,0,0.06172839506172839,33.2716049382716,0)" xlink:href="#aI"/></g><g id="F"><use transform="matrix(0.06172839506172839,0,0,0.06172839506172839,0,0)" xlink:href="#aq"/><use transform="matrix(0.06172839506172839,0,0,0.06172839506172839,12.345679012345679,0)" xlink:href="#aJ"/><use transform="matrix(0.06172839506172839,0,0,0.06172839506172839,24.691358024691358,0)" xlink:href="#ak"/><use transform="matrix(0.06172839506172839,0,0,0.06172839506172839,37.03703703703704,0)" xlink:href="#aD"/><use transform="matrix(0.06172839506172839,0,0,0.06172839506172839,49.382716049382715,0)" xlink:href="#av"/></g><path fill="#333" d="M101-251c68 0 84 54 84 127C185-50 166 4 99 4S15-52 14-124c-1-75 17-127 87-127zm-1 216c37-5 36-46 36-89s4-89-36-89c-39 0-36 45-36 89 0 43-3 85 36 89" id="aS"/><use transform="matrix(0.04938271604938272,0,0,0.04938271604938272,0,0)" xlink:href="#aS" id="G"/><path fill="#333" d="M24 0v-54h51V0H24" id="aT"/><g id="H"><use transform="matrix(0.04938271604938272,0,0,0.04938271604938272,0,0)" xlink:href="#aT"/><use transform="matrix(0.04938271604938272,0,0,0.04938271604938272,4.938271604938272,0)" xlink:href="#aT"/></g><path fill="#333" d="M86-200l42-18 12 35-44 11 32 37-32 21-26-44-26 44-32-21 33-37-44-11 12-35 42 18-3-48h38" id="aU"/><use transform="matrix(0.04938271604938272,0,0,0.04938271604938272,0,0)" xlink:href="#aU" id="I"/><path fill="#333" d="M266 0h-40l-56-210L115 0H75L2-248h35L96-30l15-64 43-154h32l59 218 59-218h35" id="aV"/><g id="J"><use transform="matrix(0.06172839506172839,0,0,0.06172839506172839,0,0)" xlink:href="#aV"/><use transform="matrix(0.06172839506172839,0,0,0.06172839506172839,20.493827160493826,0)" xlink:href="#aw"/><use transform="matrix(0.06172839506172839,0,0,0.06172839506172839,27.839506172839506,0)" xlink:href="#au"/><use transform="matrix(0.06172839506172839,0,0,0.06172839506172839,32.71604938271605,0)" xlink:href="#av"/><use transform="matrix(0.06172839506172839,0,0,0.06172839506172839,38.88888888888889,0)" xlink:href="#as"/><use transform="matrix(0.06172839506172839,0,0,0.06172839506172839,51.23456790123457,0)" xlink:href="#ay"/></g><g id="K"><use transform="matrix(0.06172839506172839,0,0,0.06172839506172839,0,0)" xlink:href="#aQ"/><use transform="matrix(0.06172839506172839,0,0,0.06172839506172839,14.814814814814813,0)" xlink:href="#aD"/><use transform="matrix(0.06172839506172839,0,0,0.06172839506172839,27.160493827160494,0)" xlink:href="#aJ"/><use transform="matrix(0.06172839506172839,0,0,0.06172839506172839,39.50617283950617,0)" xlink:href="#ax"/><use transform="matrix(0.06172839506172839,0,0,0.06172839506172839,44.382716049382715,0)" xlink:href="#au"/><use transform="matrix(0.06172839506172839,0,0,0.06172839506172839,49.25925925925926,0)" xlink:href="#ay"/><use transform="matrix(0.06172839506172839,0,0,0.06172839506172839,60.37037037037037,0)" xlink:href="#aK"/><use transform="matrix(0.06172839506172839,0,0,0.06172839506172839,72.71604938271605,0)" xlink:href="#as"/><use transform="matrix(0.06172839506172839,0,0,0.06172839506172839,85.06172839506173,0)" xlink:href="#ay"/></g><path fill="#333" d="M23 0v-37h61v-169l-59 37v-38l62-41h46v211h57V0H23" id="aW"/><use transform="matrix(0.04938271604938272,0,0,0.04938271604938272,0,0)" xlink:href="#aW" id="L"/><use transform="matrix(0.04938271604938272,0,0,0.04938271604938272,0,0)" xlink:href="#aW" id="M"/><path fill="#333" d="M16-82v-28h88v28H16" id="aX"/><g id="N"><use transform="matrix(0.06172839506172839,0,0,0.06172839506172839,0,0)" xlink:href="#aM"/><use transform="matrix(0.06172839506172839,0,0,0.06172839506172839,17.28395061728395,0)" xlink:href="#aP"/><use transform="matrix(0.06172839506172839,0,0,0.06172839506172839,23.02469135802469,0)" xlink:href="#aP"/><use transform="matrix(0.06172839506172839,0,0,0.06172839506172839,29.197530864197528,0)" xlink:href="#as"/><use transform="matrix(0.06172839506172839,0,0,0.06172839506172839,41.54320987654321,0)" xlink:href="#aw"/><use transform="matrix(0.06172839506172839,0,0,0.06172839506172839,48.888888888888886,0)" xlink:href="#aX"/><use transform="matrix(0.06172839506172839,0,0,0.06172839506172839,56.23456790123456,0)" xlink:href="#aj"/><use transform="matrix(0.06172839506172839,0,0,0.06172839506172839,71.04938271604938,0)" xlink:href="#ak"/><use transform="matrix(0.06172839506172839,0,0,0.06172839506172839,83.39506172839506,0)" xlink:href="#ak"/><use transform="matrix(0.06172839506172839,0,0,0.06172839506172839,95.74074074074075,0)" xlink:href="#al"/></g><g id="O"><use transform="matrix(0.06172839506172839,0,0,0.06172839506172839,0,0)" xlink:href="#aV"/><use transform="matrix(0.06172839506172839,0,0,0.06172839506172839,20.925925925925924,0)" xlink:href="#au"/><use transform="matrix(0.06172839506172839,0,0,0.06172839506172839,25.80246913580247,0)" xlink:href="#ay"/><use transform="matrix(0.06172839506172839,0,0,0.06172839506172839,36.91358024691358,0)" xlink:href="#aK"/><use transform="matrix(0.06172839506172839,0,0,0.06172839506172839,49.25925925925926,0)" xlink:href="#ax"/><use transform="matrix(0.06172839506172839,0,0,0.06172839506172839,54.135802469135804,0)" xlink:href="#au"/><use transform="matrix(0.06172839506172839,0,0,0.06172839506172839,59.01234567901235,0)" xlink:href="#ay"/><use transform="matrix(0.06172839506172839,0,0,0.06172839506172839,70.12345679012346,0)" xlink:href="#av"/></g><g id="P"><use transform="matrix(0.04938271604938272,0,0,0.04938271604938272,0,0)" xlink:href="#aT"/><use transform="matrix(0.04938271604938272,0,0,0.04938271604938272,4.938271604938272,0)" xlink:href="#aT"/><use transform="matrix(0.04938271604938272,0,0,0.04938271604938272,9.876543209876544,0)" xlink:href="#aU"/></g><path fill="#333" d="M233-177c-1 41-23 64-60 70L243 0h-38l-65-103H63V0H30v-248c88 3 205-21 203 71zM63-129c60-2 137 13 137-47 0-61-80-42-137-45v92" id="aY"/><path fill="#333" d="M108 0H70L1-190h34L89-25l56-165h34" id="aZ"/><path fill="#333" d="M206 0h-36l-40-164L89 0H53L-1-190h32L70-26l43-164h34l41 164 42-164h31" id="ba"/><g id="Q"><use transform="matrix(0.06172839506172839,0,0,0.06172839506172839,0,0)" xlink:href="#aY"/><use transform="matrix(0.06172839506172839,0,0,0.06172839506172839,15.987654320987653,0)" xlink:href="#as"/><use transform="matrix(0.06172839506172839,0,0,0.06172839506172839,28.333333333333332,0)" xlink:href="#aZ"/><use transform="matrix(0.06172839506172839,0,0,0.06172839506172839,39.44444444444444,0)" xlink:href="#au"/><use transform="matrix(0.06172839506172839,0,0,0.06172839506172839,44.32098765432099,0)" xlink:href="#as"/><use transform="matrix(0.06172839506172839,0,0,0.06172839506172839,56.666666666666664,0)" xlink:href="#ba"/></g><g id="R"><use transform="matrix(0.06172839506172839,0,0,0.06172839506172839,0,0)" xlink:href="#aY"/><use transform="matrix(0.06172839506172839,0,0,0.06172839506172839,15.987654320987653,0)" xlink:href="#aq"/><use transform="matrix(0.06172839506172839,0,0,0.06172839506172839,28.333333333333332,0)" xlink:href="#av"/><use transform="matrix(0.06172839506172839,0,0,0.06172839506172839,34.50617283950617,0)" xlink:href="#au"/><use transform="matrix(0.06172839506172839,0,0,0.06172839506172839,39.382716049382715,0)" xlink:href="#ap"/><use transform="matrix(0.06172839506172839,0,0,0.06172839506172839,51.72839506172839,0)" xlink:href="#aC"/></g><g id="S"><use transform="matrix(0.06172839506172839,0,0,0.06172839506172839,0,0)" xlink:href="#aL"/><use transform="matrix(0.06172839506172839,0,0,0.06172839506172839,15.987654320987653,0)" xlink:href="#ak"/><use transform="matrix(0.06172839506172839,0,0,0.06172839506172839,28.333333333333332,0)" xlink:href="#ar"/><use transform="matrix(0.06172839506172839,0,0,0.06172839506172839,46.79012345679012,0)" xlink:href="#ar"/><use transform="matrix(0.06172839506172839,0,0,0.06172839506172839,65.24691358024691,0)" xlink:href="#as"/><use transform="matrix(0.06172839506172839,0,0,0.06172839506172839,77.5925925925926,0)" xlink:href="#ap"/><use transform="matrix(0.06172839506172839,0,0,0.06172839506172839,89.93827160493828,0)" xlink:href="#av"/></g><g id="T"><use transform="matrix(0.06172839506172839,0,0,0.06172839506172839,0,0)" xlink:href="#aL"/><use transform="matrix(0.06172839506172839,0,0,0.06172839506172839,15.987654320987653,0)" xlink:href="#aq"/><use transform="matrix(0.06172839506172839,0,0,0.06172839506172839,28.333333333333332,0)" xlink:href="#aw"/><use transform="matrix(0.06172839506172839,0,0,0.06172839506172839,35.67901234567901,0)" xlink:href="#av"/></g><path fill="#333" d="M140-251c81 0 123 46 123 126C263-53 228-8 163 1c7 30 30 48 69 40v23c-55 16-95-15-103-61C56-3 17-48 17-125c0-80 42-126 123-126zm0 227c63 0 89-41 89-101s-29-99-89-99c-61 0-89 39-89 99S79-25 140-24" id="bb"/><g id="U"><use transform="matrix(0.06172839506172839,0,0,0.06172839506172839,0,0)" xlink:href="#bb"/><use transform="matrix(0.06172839506172839,0,0,0.06172839506172839,17.28395061728395,0)" xlink:href="#aD"/><use transform="matrix(0.06172839506172839,0,0,0.06172839506172839,29.629629629629626,0)" xlink:href="#aq"/><use transform="matrix(0.06172839506172839,0,0,0.06172839506172839,41.9753086419753,0)" xlink:href="#ap"/><use transform="matrix(0.06172839506172839,0,0,0.06172839506172839,54.32098765432098,0)" xlink:href="#av"/><use transform="matrix(0.06172839506172839,0,0,0.06172839506172839,60.49382716049382,0)" xlink:href="#au"/><use transform="matrix(0.06172839506172839,0,0,0.06172839506172839,65.37037037037037,0)" xlink:href="#av"/><use transform="matrix(0.06172839506172839,0,0,0.06172839506172839,71.5432098765432,0)" xlink:href="#aF"/></g><g id="V"><use transform="matrix(0.06172839506172839,0,0,0.06172839506172839,0,0)" xlink:href="#aQ"/><use transform="matrix(0.06172839506172839,0,0,0.06172839506172839,14.814814814814813,0)" xlink:href="#ax"/><use transform="matrix(0.06172839506172839,0,0,0.06172839506172839,19.691358024691354,0)" xlink:href="#aq"/><use transform="matrix(0.06172839506172839,0,0,0.06172839506172839,32.03703703703703,0)" xlink:href="#aB"/><use transform="matrix(0.06172839506172839,0,0,0.06172839506172839,43.14814814814814,0)" xlink:href="#as"/><use transform="matrix(0.06172839506172839,0,0,0.06172839506172839,55.493827160493815,0)" xlink:href="#ay"/></g><g id="W"><use transform="matrix(0.06172839506172839,0,0,0.06172839506172839,0,0)" xlink:href="#aM"/><use transform="matrix(0.06172839506172839,0,0,0.06172839506172839,17.28395061728395,0)" xlink:href="#aw"/><use transform="matrix(0.06172839506172839,0,0,0.06172839506172839,24.629629629629626,0)" xlink:href="#at"/><use transform="matrix(0.06172839506172839,0,0,0.06172839506172839,36.9753086419753,0)" xlink:href="#as"/><use transform="matrix(0.06172839506172839,0,0,0.06172839506172839,49.32098765432098,0)" xlink:href="#aw"/><use transform="matrix(0.06172839506172839,0,0,0.06172839506172839,56.66666666666666,0)" xlink:href="#aX"/><use transform="matrix(0.06172839506172839,0,0,0.06172839506172839,64.01234567901234,0)" xlink:href="#aj"/><use transform="matrix(0.06172839506172839,0,0,0.06172839506172839,78.82716049382715,0)" xlink:href="#ak"/><use transform="matrix(0.06172839506172839,0,0,0.06172839506172839,91.17283950617283,0)" xlink:href="#ak"/><use transform="matrix(0.06172839506172839,0,0,0.06172839506172839,103.51851851851852,0)" xlink:href="#al"/></g><g id="X"><use transform="matrix(0.06172839506172839,0,0,0.06172839506172839,0,0)" xlink:href="#aY"/><use transform="matrix(0.06172839506172839,0,0,0.06172839506172839,15.987654320987653,0)" xlink:href="#as"/><use transform="matrix(0.06172839506172839,0,0,0.06172839506172839,28.333333333333332,0)" xlink:href="#aH"/><use transform="matrix(0.06172839506172839,0,0,0.06172839506172839,40.67901234567901,0)" xlink:href="#aD"/><use transform="matrix(0.06172839506172839,0,0,0.06172839506172839,53.02469135802469,0)" xlink:href="#as"/><use transform="matrix(0.06172839506172839,0,0,0.06172839506172839,65.37037037037037,0)" xlink:href="#ay"/><use transform="matrix(0.06172839506172839,0,0,0.06172839506172839,76.48148148148148,0)" xlink:href="#av"/></g><g id="Y"><use transform="matrix(0.06172839506172839,0,0,0.06172839506172839,0,0)" xlink:href="#aj"/><use transform="matrix(0.06172839506172839,0,0,0.06172839506172839,14.814814814814813,0)" xlink:href="#ak"/><use transform="matrix(0.06172839506172839,0,0,0.06172839506172839,27.160493827160494,0)" xlink:href="#aw"/><use transform="matrix(0.06172839506172839,0,0,0.06172839506172839,34.50617283950617,0)" xlink:href="#aw"/><use transform="matrix(0.06172839506172839,0,0,0.06172839506172839,41.85185185185185,0)" xlink:href="#ak"/><use transform="matrix(0.06172839506172839,0,0,0.06172839506172839,54.197530864197525,0)" xlink:href="#ba"/><use transform="matrix(0.06172839506172839,0,0,0.06172839506172839,70.18518518518518,0)" xlink:href="#ay"/></g><g id="Z"><use transform="matrix(0.06172839506172839,0,0,0.06172839506172839,0,0)" xlink:href="#aj"/><use transform="matrix(0.06172839506172839,0,0,0.06172839506172839,14.814814814814813,0)" xlink:href="#ak"/><use transform="matrix(0.06172839506172839,0,0,0.06172839506172839,27.160493827160494,0)" xlink:href="#aw"/><use transform="matrix(0.06172839506172839,0,0,0.06172839506172839,34.50617283950617,0)" xlink:href="#aw"/><use transform="matrix(0.06172839506172839,0,0,0.06172839506172839,41.85185185185185,0)" xlink:href="#ak"/><use transform="matrix(0.06172839506172839,0,0,0.06172839506172839,54.197530864197525,0)" xlink:href="#ba"/><use transform="matrix(0.06172839506172839,0,0,0.06172839506172839,70.18518518518518,0)" xlink:href="#aq"/><use transform="matrix(0.06172839506172839,0,0,0.06172839506172839,82.53086419753086,0)" xlink:href="#aJ"/><use transform="matrix(0.06172839506172839,0,0,0.06172839506172839,94.87654320987654,0)" xlink:href="#ax"/><use transform="matrix(0.06172839506172839,0,0,0.06172839506172839,99.75308641975309,0)" xlink:href="#as"/></g><g id="aa"><use transform="matrix(0.06172839506172839,0,0,0.06172839506172839,0,0)" xlink:href="#an"/><use transform="matrix(0.06172839506172839,0,0,0.06172839506172839,14.814814814814813,0)" xlink:href="#av"/><use transform="matrix(0.06172839506172839,0,0,0.06172839506172839,20.98765432098765,0)" xlink:href="#aq"/><use transform="matrix(0.06172839506172839,0,0,0.06172839506172839,33.33333333333333,0)" xlink:href="#aw"/><use transform="matrix(0.06172839506172839,0,0,0.06172839506172839,40.679012345679006,0)" xlink:href="#av"/></g><g id="ab"><use transform="matrix(0.06172839506172839,0,0,0.06172839506172839,0,0)" xlink:href="#aI"/><use transform="matrix(0.06172839506172839,0,0,0.06172839506172839,15.987654320987653,0)" xlink:href="#aq"/><use transform="matrix(0.06172839506172839,0,0,0.06172839506172839,28.333333333333332,0)" xlink:href="#av"/><use transform="matrix(0.06172839506172839,0,0,0.06172839506172839,34.50617283950617,0)" xlink:href="#as"/></g><path fill="#333" d="M30 0v-248h187v28H63v79h144v27H63v87h162V0H30" id="bc"/><g id="ac"><use transform="matrix(0.06172839506172839,0,0,0.06172839506172839,0,0)" xlink:href="#bc"/><use transform="matrix(0.06172839506172839,0,0,0.06172839506172839,14.814814814814813,0)" xlink:href="#ap"/><use transform="matrix(0.06172839506172839,0,0,0.06172839506172839,27.160493827160494,0)" xlink:href="#at"/></g><g id="ad"><use transform="matrix(0.06172839506172839,0,0,0.06172839506172839,0,0)" xlink:href="#aI"/><use transform="matrix(0.06172839506172839,0,0,0.06172839506172839,15.987654320987653,0)" xlink:href="#aq"/><use transform="matrix(0.06172839506172839,0,0,0.06172839506172839,28.333333333333332,0)" xlink:href="#av"/><use transform="matrix(0.06172839506172839,0,0,0.06172839506172839,34.50617283950617,0)" xlink:href="#as"/></g><g id="ae"><use transform="matrix(0.06172839506172839,0,0,0.06172839506172839,0,0)" xlink:href="#aQ"/><use transform="matrix(0.06172839506172839,0,0,0.06172839506172839,14.814814814814813,0)" xlink:href="#ax"/><use transform="matrix(0.06172839506172839,0,0,0.06172839506172839,19.691358024691354,0)" xlink:href="#aq"/><use transform="matrix(0.06172839506172839,0,0,0.06172839506172839,32.03703703703703,0)" xlink:href="#ap"/><use transform="matrix(0.06172839506172839,0,0,0.06172839506172839,44.38271604938271,0)" xlink:href="#ay"/></g><g id="af"><use transform="matrix(0.06172839506172839,0,0,0.06172839506172839,0,0)" xlink:href="#aJ"/><use transform="matrix(0.06172839506172839,0,0,0.06172839506172839,12.345679012345679,0)" xlink:href="#ak"/><use transform="matrix(0.06172839506172839,0,0,0.06172839506172839,24.691358024691358,0)" xlink:href="#aw"/><use transform="matrix(0.06172839506172839,0,0,0.06172839506172839,32.03703703703704,0)" xlink:href="#aw"/><use transform="matrix(0.06172839506172839,0,0,0.06172839506172839,39.382716049382715,0)" xlink:href="#ak"/><use transform="matrix(0.06172839506172839,0,0,0.06172839506172839,51.72839506172839,0)" xlink:href="#ba"/><use transform="matrix(0.06172839506172839,0,0,0.06172839506172839,67.71604938271605,0)" xlink:href="#az"/><use transform="matrix(0.06172839506172839,0,0,0.06172839506172839,80.06172839506173,0)" xlink:href="#ax"/><use transform="matrix(0.06172839506172839,0,0,0.06172839506172839,84.93827160493828,0)" xlink:href="#au"/><use transform="matrix(0.06172839506172839,0,0,0.06172839506172839,89.81481481481482,0)" xlink:href="#ar"/><use transform="matrix(0.06172839506172839,0,0,0.06172839506172839,108.27160493827161,0)" xlink:href="#au"/><use transform="matrix(0.06172839506172839,0,0,0.06172839506172839,113.14814814814815,0)" xlink:href="#av"/></g><g id="ag"><use transform="matrix(0.06172839506172839,0,0,0.06172839506172839,0,0)" xlink:href="#aJ"/><use transform="matrix(0.06172839506172839,0,0,0.06172839506172839,12.345679012345679,0)" xlink:href="#aD"/><use transform="matrix(0.06172839506172839,0,0,0.06172839506172839,24.691358024691358,0)" xlink:href="#aF"/><use transform="matrix(0.06172839506172839,0,0,0.06172839506172839,35.80246913580247,0)" xlink:href="#ay"/></g><g id="ah"><use transform="matrix(0.06172839506172839,0,0,0.06172839506172839,0,0)" xlink:href="#aQ"/><use transform="matrix(0.06172839506172839,0,0,0.06172839506172839,14.814814814814813,0)" xlink:href="#aw"/><use transform="matrix(0.06172839506172839,0,0,0.06172839506172839,22.160493827160494,0)" xlink:href="#au"/><use transform="matrix(0.06172839506172839,0,0,0.06172839506172839,27.037037037037038,0)" xlink:href="#aB"/><use transform="matrix(0.06172839506172839,0,0,0.06172839506172839,38.14814814814815,0)" xlink:href="#as"/></g><g id="ai"><use transform="matrix(0.06172839506172839,0,0,0.06172839506172839,0,0)" xlink:href="#bb"/><use transform="matrix(0.06172839506172839,0,0,0.06172839506172839,17.28395061728395,0)" xlink:href="#aD"/><use transform="matrix(0.06172839506172839,0,0,0.06172839506172839,29.629629629629626,0)" xlink:href="#aq"/><use transform="matrix(0.06172839506172839,0,0,0.06172839506172839,41.9753086419753,0)" xlink:href="#ap"/><use transform="matrix(0.06172839506172839,0,0,0.06172839506172839,54.32098765432098,0)" xlink:href="#av"/><use transform="matrix(0.06172839506172839,0,0,0.06172839506172839,60.49382716049382,0)" xlink:href="#au"/><use transform="matrix(0.06172839506172839,0,0,0.06172839506172839,65.37037037037037,0)" xlink:href="#av"/><use transform="matrix(0.06172839506172839,0,0,0.06172839506172839,71.5432098765432,0)" xlink:href="#aF"/></g></defs></g></svg>