<?xml version="1.0" encoding="UTF-8" standalone="no"?>
<!-- Created with Inkscape (http://www.inkscape.org/) -->

<svg
   width="1992.7528"
   height="348.46271"
   viewBox="0 0 527.24918 92.197429"
   version="1.1"
   id="svg5"
   sodipodi:docname="logo (copy).svg"
   inkscape:version="1.1.2 (0a00cf5339, 2022-02-04)"
   xmlns:inkscape="http://www.inkscape.org/namespaces/inkscape"
   xmlns:sodipodi="http://sodipodi.sourceforge.net/DTD/sodipodi-0.dtd"
   xmlns="http://www.w3.org/2000/svg"
   xmlns:svg="http://www.w3.org/2000/svg">
  <sodipodi:namedview
     id="namedview7"
     pagecolor="#ffffff"
     bordercolor="#eeeeee"
     borderopacity="1"
     inkscape:pageshadow="0"
     inkscape:pageopacity="0"
     inkscape:pagecheckerboard="0"
     inkscape:document-units="mm"
     showgrid="false"
     inkscape:snap-global="false"
     inkscape:zoom="0.32382505"
     inkscape:cx="1497.7223"
     inkscape:cy="481.7416"
     inkscape:window-width="1920"
     inkscape:window-height="1023"
     inkscape:window-x="0"
     inkscape:window-y="29"
     inkscape:window-maximized="1"
     inkscape:current-layer="layer1"
     fit-margin-top="0"
     fit-margin-left="0"
     fit-margin-right="0"
     fit-margin-bottom="0"
     units="px" />
  <defs
     id="defs2">
    <rect
       x="732.94873"
       y="-3018.4326"
       width="5846.9404"
       height="1107.0159"
       id="rect5543" />
  </defs>
  <g
     inkscape:label="Layer 1"
     inkscape:groupmode="layer"
     id="layer1"
     transform="translate(286.25035,866.05067)">
    <g
       id="g996"
       transform="matrix(0.80989066,0,0,0.80989066,-54.418861,-164.64432)">
      <g
         id="g12827"
         transform="matrix(0.32994071,0,0,0.32994071,-243.46179,-817.67686)">
        <g
           id="g2509"
           transform="translate(0,36.661321)">
          <rect
             style="opacity:1;fill:#b3b3b3;stroke-width:10.1597;stroke-linecap:round;stroke-linejoin:round;paint-order:markers fill stroke;stop-color:#000000"
             id="rect1852"
             width="237.05824"
             height="54.522655"
             x="-39.065636"
             y="26.208265" />
          <path
             id="path1628"
             style="opacity:1;fill:#4d4d4d;stroke-width:9.92713;stroke-linecap:round;stroke-linejoin:round;paint-order:markers fill stroke;stop-color:#000000"
             d="m -30.456348,20.070875 c -20.2305,0 -40.739943,4.920085 -46.352742,11.459682 l -14.989968,17.467382 -24.709622,28.791956 -10.8712,12.666483 c -4.13465,4.818242 7.63794,8.843823 26.5521,8.843823 h 20.07067 308.21061 20.07068 c 18.91515,0 30.68674,-4.025581 26.5511,-8.843823 L 263.20507,77.789895 238.49545,48.997939 223.50499,31.530557 C 217.89258,24.99096 197.38383,20.070875 177.15333,20.070875 Z M 156.31648,31.137244 h 5.21492 c 1.13924,0 2.88373,1.600948 3.93303,3.630848 l 17.91629,34.659883 c 1.53552,2.970594 1.65683,5.423092 0.23229,5.423092 h -6.52083 c -1.42465,0 -3.70858,-2.452498 -5.08547,-5.423092 L 155.94242,34.768092 c -0.94079,-2.0299 -0.76528,-3.630848 0.37406,-3.630848 z M 8.3011612,31.241975 H 37.12399 c 6.297077,0 11.138042,1.602835 10.848766,3.635216 L 43.03371,69.583632 c -0.423293,2.974963 -7.112194,5.431233 -14.987288,5.431233 H -8.0001845 c -7.8742005,0 -13.1405435,-2.45627 -11.8390965,-5.431233 L -4.6567268,34.877191 c 0.8894709,-2.032381 6.6601121,-3.635216 12.957888,-3.635216 z m 107.4171588,0 h 5.21801 c 1.14002,0 2.5137,1.602835 3.09135,3.635216 l 9.86421,34.706441 c 0.84559,2.974963 0.39548,5.431233 -1.03023,5.431233 h -6.52561 c -1.42573,0 -3.13989,-2.45627 -3.82647,-5.431233 l -8.00976,-34.706441 c -0.46896,-2.032381 0.0784,-3.635216 1.2185,-3.635216 z m 20.25915,0 h 5.218 c 1.14003,0 2.69959,1.602835 3.51302,3.635216 l 13.88944,34.706441 c 1.19056,2.974963 1.02537,5.431233 -0.40036,5.431233 h -6.5256 c -1.42573,0 -3.42555,-2.45627 -4.45718,-5.431233 L 135.17993,34.877191 c -0.70474,-2.032381 -0.34249,-3.635216 0.79754,-3.635216 z" />
          <path
             id="rect1715"
             style="opacity:1;fill:#333333;stroke-width:15.346;stroke-linecap:round;stroke-linejoin:round;paint-order:markers fill stroke;stop-color:#000000"
             d="m -116.0294,85.187454 h 378.7546 c 7.56553,0 13.6562,5.582019 13.6562,12.515753 v 51.535773 c 0,6.93372 -6.09067,12.51574 -13.6562,12.51574 h -378.7546 c -7.56553,0 -13.6562,-5.58202 -13.6562,-12.51574 V 97.703207 c 0,-6.933734 6.09067,-12.515753 13.6562,-12.515753 z" />
        </g>
        <g
           id="g2517"
           transform="translate(0,-65.011609)">
          <rect
             style="opacity:1;fill:#cccccc;stroke-width:10.1597;stroke-linecap:round;stroke-linejoin:round;paint-order:markers fill stroke;stop-color:#000000"
             id="rect2511"
             width="237.05824"
             height="54.522655"
             x="-39.065636"
             y="26.208265" />
          <path
             id="path2513"
             style="opacity:1;fill:#808080;stroke-width:9.92713;stroke-linecap:round;stroke-linejoin:round;paint-order:markers fill stroke;stop-color:#000000"
             d="m -30.456348,20.070875 c -20.2305,0 -40.739943,4.920085 -46.352742,11.459682 l -14.989968,17.467382 -24.709622,28.791956 -10.8712,12.666483 c -4.13465,4.818242 7.63794,8.843823 26.5521,8.843823 h 20.07067 308.21061 20.07068 c 18.91515,0 30.68674,-4.025581 26.5511,-8.843823 L 263.20507,77.789895 238.49545,48.997939 223.50499,31.530557 C 217.89258,24.99096 197.38383,20.070875 177.15333,20.070875 Z M 156.31648,31.137244 h 5.21492 c 1.13924,0 2.88373,1.600948 3.93303,3.630848 l 17.91629,34.659883 c 1.53552,2.970594 1.65683,5.423092 0.23229,5.423092 h -6.52083 c -1.42465,0 -3.70858,-2.452498 -5.08547,-5.423092 L 155.94242,34.768092 c -0.94079,-2.0299 -0.76528,-3.630848 0.37406,-3.630848 z M 8.3011612,31.241975 H 37.12399 c 6.297077,0 11.138042,1.602835 10.848766,3.635216 L 43.03371,69.583632 c -0.423293,2.974963 -7.112194,5.431233 -14.987288,5.431233 H -8.0001845 c -7.8742005,0 -13.1405435,-2.45627 -11.8390965,-5.431233 L -4.6567268,34.877191 c 0.8894709,-2.032381 6.6601121,-3.635216 12.957888,-3.635216 z m 107.4171588,0 h 5.21801 c 1.14002,0 2.5137,1.602835 3.09135,3.635216 l 9.86421,34.706441 c 0.84559,2.974963 0.39548,5.431233 -1.03023,5.431233 h -6.52561 c -1.42573,0 -3.13989,-2.45627 -3.82647,-5.431233 l -8.00976,-34.706441 c -0.46896,-2.032381 0.0784,-3.635216 1.2185,-3.635216 z m 20.25915,0 h 5.218 c 1.14003,0 2.69959,1.602835 3.51302,3.635216 l 13.88944,34.706441 c 1.19056,2.974963 1.02537,5.431233 -0.40036,5.431233 h -6.5256 c -1.42573,0 -3.42555,-2.45627 -4.45718,-5.431233 L 135.17993,34.877191 c -0.70474,-2.032381 -0.34249,-3.635216 0.79754,-3.635216 z" />
          <path
             id="path2515"
             style="opacity:1;fill:#666666;stroke-width:15.346;stroke-linecap:round;stroke-linejoin:round;paint-order:markers fill stroke;stop-color:#000000"
             d="m -116.0294,85.187454 h 378.7546 c 7.56553,0 13.6562,5.582019 13.6562,12.515753 v 51.535773 c 0,6.93372 -6.09067,12.51574 -13.6562,12.51574 h -378.7546 c -7.56553,0 -13.6562,-5.58202 -13.6562,-12.51574 V 97.703207 c 0,-6.933734 6.09067,-12.515753 13.6562,-12.515753 z" />
        </g>
        <g
           id="g2903"
           transform="translate(0,-166.68454)">
          <rect
             style="opacity:1;fill:#e6e6e6;stroke-width:10.1597;stroke-linecap:round;stroke-linejoin:round;paint-order:markers fill stroke;stop-color:#000000"
             id="rect2897"
             width="237.05824"
             height="54.522655"
             x="-39.065636"
             y="26.208265" />
          <path
             id="path2899"
             style="opacity:1;fill:#b3b3b3;stroke-width:9.92713;stroke-linecap:round;stroke-linejoin:round;paint-order:markers fill stroke;stop-color:#000000"
             d="m -30.456348,20.070875 c -20.2305,0 -40.739943,4.920085 -46.352742,11.459682 l -14.989968,17.467382 -24.709622,28.791956 -10.8712,12.666483 c -4.13465,4.818242 7.63794,8.843823 26.5521,8.843823 h 20.07067 308.21061 20.07068 c 18.91515,0 30.68674,-4.025581 26.5511,-8.843823 L 263.20507,77.789895 238.49545,48.997939 223.50499,31.530557 C 217.89258,24.99096 197.38383,20.070875 177.15333,20.070875 Z M 156.31648,31.137244 h 5.21492 c 1.13924,0 2.88373,1.600948 3.93303,3.630848 l 17.91629,34.659883 c 1.53552,2.970594 1.65683,5.423092 0.23229,5.423092 h -6.52083 c -1.42465,0 -3.70858,-2.452498 -5.08547,-5.423092 L 155.94242,34.768092 c -0.94079,-2.0299 -0.76528,-3.630848 0.37406,-3.630848 z M 8.3011612,31.241975 H 37.12399 c 6.297077,0 11.138042,1.602835 10.848766,3.635216 L 43.03371,69.583632 c -0.423293,2.974963 -7.112194,5.431233 -14.987288,5.431233 H -8.0001845 c -7.8742005,0 -13.1405435,-2.45627 -11.8390965,-5.431233 L -4.6567268,34.877191 c 0.8894709,-2.032381 6.6601121,-3.635216 12.957888,-3.635216 z m 107.4171588,0 h 5.21801 c 1.14002,0 2.5137,1.602835 3.09135,3.635216 l 9.86421,34.706441 c 0.84559,2.974963 0.39548,5.431233 -1.03023,5.431233 h -6.52561 c -1.42573,0 -3.13989,-2.45627 -3.82647,-5.431233 l -8.00976,-34.706441 c -0.46896,-2.032381 0.0784,-3.635216 1.2185,-3.635216 z m 20.25915,0 h 5.218 c 1.14003,0 2.69959,1.602835 3.51302,3.635216 l 13.88944,34.706441 c 1.19056,2.974963 1.02537,5.431233 -0.40036,5.431233 h -6.5256 c -1.42573,0 -3.42555,-2.45627 -4.45718,-5.431233 L 135.17993,34.877191 c -0.70474,-2.032381 -0.34249,-3.635216 0.79754,-3.635216 z" />
          <path
             id="path2901"
             style="opacity:1;fill:#999999;stroke-width:15.346;stroke-linecap:round;stroke-linejoin:round;paint-order:markers fill stroke;stop-color:#000000"
             d="m -116.0294,85.187454 h 378.7546 c 7.56553,0 13.6562,5.582019 13.6562,12.515753 v 51.535773 c 0,6.93372 -6.09067,12.51574 -13.6562,12.51574 h -378.7546 c -7.56553,0 -13.6562,-5.58202 -13.6562,-12.51574 V 97.703207 c 0,-6.933734 6.09067,-12.515753 13.6562,-12.515753 z" />
        </g>
      </g>
      <text
         xml:space="preserve"
         transform="matrix(0.11266424,0,0,0.12768859,-211.5545,-475.21485)"
         id="text5541"
         style="font-style:normal;font-variant:normal;font-weight:normal;font-stretch:normal;font-size:800px;line-height:1.25;font-family:Lato;-inkscape-font-specification:'Lato, Normal';font-variant-ligatures:normal;font-variant-caps:normal;font-variant-numeric:normal;font-variant-east-asian:normal;white-space:pre;shape-inside:url(#rect5543);fill:#000000;fill-opacity:1;stroke:none"><tspan
           x="732.94922"
           y="-2274.4336"
           id="tspan1054"><tspan
             style="fill:#999999"
             id="tspan1050">BOOK</tspan><tspan
             dx="0.00018310547"
             style="fill:#4d4d4d"
             id="tspan1052">KEEP</tspan></tspan></text>
    </g>
  </g>
</svg>
