<?xml version="1.0" encoding="UTF-8" standalone="no"?>
<!-- Created with Inkscape (http://www.inkscape.org/) -->

<svg
   width="1992.7528"
   height="348.46271"
   viewBox="0 0 527.24918 92.197429"
   version="1.1"
   id="svg5"
   sodipodi:docname="logo.svg"
   inkscape:version="1.1.2 (0a00cf5339, 2022-02-04)"
   xmlns:inkscape="http://www.inkscape.org/namespaces/inkscape"
   xmlns:sodipodi="http://sodipodi.sourceforge.net/DTD/sodipodi-0.dtd"
   xmlns="http://www.w3.org/2000/svg"
   xmlns:svg="http://www.w3.org/2000/svg">
  <sodipodi:namedview
     id="namedview7"
     pagecolor="#ffffff"
     bordercolor="#eeeeee"
     borderopacity="1"
     inkscape:pageshadow="0"
     inkscape:pageopacity="0"
     inkscape:pagecheckerboard="0"
     inkscape:document-units="mm"
     showgrid="false"
     inkscape:snap-global="false"
     inkscape:zoom="0.32382505"
     inkscape:cx="1497.7223"
     inkscape:cy="481.74161"
     inkscape:window-width="1920"
     inkscape:window-height="1023"
     inkscape:window-x="0"
     inkscape:window-y="29"
     inkscape:window-maximized="1"
     inkscape:current-layer="layer1"
     fit-margin-top="0"
     fit-margin-left="0"
     fit-margin-right="0"
     fit-margin-bottom="0"
     units="px" />
  <defs
     id="defs2">
    <rect
       x="732.94873"
       y="-3018.4326"
       width="5846.9404"
       height="1107.0159"
       id="rect5543" />
  </defs>
  <g
     inkscape:label="Layer 1"
     inkscape:groupmode="layer"
     id="layer1"
     transform="translate(286.25035,866.05067)">
    <g
       id="g12827"
       transform="matrix(0.2672159,0,0,0.2672159,-251.59629,-826.87317)">
      <g
         id="g2509"
         transform="translate(0,36.661321)">
        <rect
           style="opacity:1;fill:#b3b3b3;stroke-width:10.1597;stroke-linecap:round;stroke-linejoin:round;paint-order:markers fill stroke;stop-color:#000000"
           id="rect1852"
           width="237.05824"
           height="54.522655"
           x="-39.065636"
           y="26.208265" />
        <path
           id="path1628"
           style="opacity:1;fill:#4d4d4d;stroke-width:9.92713;stroke-linecap:round;stroke-linejoin:round;paint-order:markers fill stroke;stop-color:#000000"
           d="m -30.456348,20.070875 c -20.2305,0 -40.739943,4.920085 -46.352742,11.459682 l -14.989968,17.467382 -24.709622,28.791956 -10.8712,12.666483 c -4.13465,4.818242 7.63794,8.843823 26.5521,8.843823 h 20.07067 308.21061 20.07068 c 18.91515,0 30.68674,-4.025581 26.5511,-8.843823 L 263.20507,77.789895 238.49545,48.997939 223.50499,31.530557 C 217.89258,24.99096 197.38383,20.070875 177.15333,20.070875 Z M 156.31648,31.137244 h 5.21492 c 1.13924,0 2.88373,1.600948 3.93303,3.630848 l 17.91629,34.659883 c 1.53552,2.970594 1.65683,5.423092 0.23229,5.423092 h -6.52083 c -1.42465,0 -3.70858,-2.452498 -5.08547,-5.423092 L 155.94242,34.768092 c -0.94079,-2.0299 -0.76528,-3.630848 0.37406,-3.630848 z M 8.3011612,31.241975 H 37.12399 c 6.297077,0 11.138042,1.602835 10.848766,3.635216 L 43.03371,69.583632 c -0.423293,2.974963 -7.112194,5.431233 -14.987288,5.431233 H -8.0001845 c -7.8742005,0 -13.1405435,-2.45627 -11.8390965,-5.431233 L -4.6567268,34.877191 c 0.8894709,-2.032381 6.6601121,-3.635216 12.957888,-3.635216 z m 107.4171588,0 h 5.21801 c 1.14002,0 2.5137,1.602835 3.09135,3.635216 l 9.86421,34.706441 c 0.84559,2.974963 0.39548,5.431233 -1.03023,5.431233 h -6.52561 c -1.42573,0 -3.13989,-2.45627 -3.82647,-5.431233 l -8.00976,-34.706441 c -0.46896,-2.032381 0.0784,-3.635216 1.2185,-3.635216 z m 20.25915,0 h 5.218 c 1.14003,0 2.69959,1.602835 3.51302,3.635216 l 13.88944,34.706441 c 1.19056,2.974963 1.02537,5.431233 -0.40036,5.431233 h -6.5256 c -1.42573,0 -3.42555,-2.45627 -4.45718,-5.431233 L 135.17993,34.877191 c -0.70474,-2.032381 -0.34249,-3.635216 0.79754,-3.635216 z" />
        <path
           id="rect1715"
           style="opacity:1;fill:#333333;stroke-width:15.346;stroke-linecap:round;stroke-linejoin:round;paint-order:markers fill stroke;stop-color:#000000"
           d="m -116.0294,85.187454 h 378.7546 c 7.56553,0 13.6562,5.582019 13.6562,12.515753 v 51.535773 c 0,6.93372 -6.09067,12.51574 -13.6562,12.51574 h -378.7546 c -7.56553,0 -13.6562,-5.58202 -13.6562,-12.51574 V 97.703207 c 0,-6.933734 6.09067,-12.515753 13.6562,-12.515753 z" />
      </g>
      <g
         id="g2517"
         transform="translate(0,-65.011609)">
        <rect
           style="opacity:1;fill:#cccccc;stroke-width:10.1597;stroke-linecap:round;stroke-linejoin:round;paint-order:markers fill stroke;stop-color:#000000"
           id="rect2511"
           width="237.05824"
           height="54.522655"
           x="-39.065636"
           y="26.208265" />
        <path
           id="path2513"
           style="opacity:1;fill:#808080;stroke-width:9.92713;stroke-linecap:round;stroke-linejoin:round;paint-order:markers fill stroke;stop-color:#000000"
           d="m -30.456348,20.070875 c -20.2305,0 -40.739943,4.920085 -46.352742,11.459682 l -14.989968,17.467382 -24.709622,28.791956 -10.8712,12.666483 c -4.13465,4.818242 7.63794,8.843823 26.5521,8.843823 h 20.07067 308.21061 20.07068 c 18.91515,0 30.68674,-4.025581 26.5511,-8.843823 L 263.20507,77.789895 238.49545,48.997939 223.50499,31.530557 C 217.89258,24.99096 197.38383,20.070875 177.15333,20.070875 Z M 156.31648,31.137244 h 5.21492 c 1.13924,0 2.88373,1.600948 3.93303,3.630848 l 17.91629,34.659883 c 1.53552,2.970594 1.65683,5.423092 0.23229,5.423092 h -6.52083 c -1.42465,0 -3.70858,-2.452498 -5.08547,-5.423092 L 155.94242,34.768092 c -0.94079,-2.0299 -0.76528,-3.630848 0.37406,-3.630848 z M 8.3011612,31.241975 H 37.12399 c 6.297077,0 11.138042,1.602835 10.848766,3.635216 L 43.03371,69.583632 c -0.423293,2.974963 -7.112194,5.431233 -14.987288,5.431233 H -8.0001845 c -7.8742005,0 -13.1405435,-2.45627 -11.8390965,-5.431233 L -4.6567268,34.877191 c 0.8894709,-2.032381 6.6601121,-3.635216 12.957888,-3.635216 z m 107.4171588,0 h 5.21801 c 1.14002,0 2.5137,1.602835 3.09135,3.635216 l 9.86421,34.706441 c 0.84559,2.974963 0.39548,5.431233 -1.03023,5.431233 h -6.52561 c -1.42573,0 -3.13989,-2.45627 -3.82647,-5.431233 l -8.00976,-34.706441 c -0.46896,-2.032381 0.0784,-3.635216 1.2185,-3.635216 z m 20.25915,0 h 5.218 c 1.14003,0 2.69959,1.602835 3.51302,3.635216 l 13.88944,34.706441 c 1.19056,2.974963 1.02537,5.431233 -0.40036,5.431233 h -6.5256 c -1.42573,0 -3.42555,-2.45627 -4.45718,-5.431233 L 135.17993,34.877191 c -0.70474,-2.032381 -0.34249,-3.635216 0.79754,-3.635216 z" />
        <path
           id="path2515"
           style="opacity:1;fill:#666666;stroke-width:15.346;stroke-linecap:round;stroke-linejoin:round;paint-order:markers fill stroke;stop-color:#000000"
           d="m -116.0294,85.187454 h 378.7546 c 7.56553,0 13.6562,5.582019 13.6562,12.515753 v 51.535773 c 0,6.93372 -6.09067,12.51574 -13.6562,12.51574 h -378.7546 c -7.56553,0 -13.6562,-5.58202 -13.6562,-12.51574 V 97.703207 c 0,-6.933734 6.09067,-12.515753 13.6562,-12.515753 z" />
      </g>
      <g
         id="g2903"
         transform="translate(0,-166.68454)">
        <rect
           style="opacity:1;fill:#e6e6e6;stroke-width:10.1597;stroke-linecap:round;stroke-linejoin:round;paint-order:markers fill stroke;stop-color:#000000"
           id="rect2897"
           width="237.05824"
           height="54.522655"
           x="-39.065636"
           y="26.208265" />
        <path
           id="path2899"
           style="opacity:1;fill:#b3b3b3;stroke-width:9.92713;stroke-linecap:round;stroke-linejoin:round;paint-order:markers fill stroke;stop-color:#000000"
           d="m -30.456348,20.070875 c -20.2305,0 -40.739943,4.920085 -46.352742,11.459682 l -14.989968,17.467382 -24.709622,28.791956 -10.8712,12.666483 c -4.13465,4.818242 7.63794,8.843823 26.5521,8.843823 h 20.07067 308.21061 20.07068 c 18.91515,0 30.68674,-4.025581 26.5511,-8.843823 L 263.20507,77.789895 238.49545,48.997939 223.50499,31.530557 C 217.89258,24.99096 197.38383,20.070875 177.15333,20.070875 Z M 156.31648,31.137244 h 5.21492 c 1.13924,0 2.88373,1.600948 3.93303,3.630848 l 17.91629,34.659883 c 1.53552,2.970594 1.65683,5.423092 0.23229,5.423092 h -6.52083 c -1.42465,0 -3.70858,-2.452498 -5.08547,-5.423092 L 155.94242,34.768092 c -0.94079,-2.0299 -0.76528,-3.630848 0.37406,-3.630848 z M 8.3011612,31.241975 H 37.12399 c 6.297077,0 11.138042,1.602835 10.848766,3.635216 L 43.03371,69.583632 c -0.423293,2.974963 -7.112194,5.431233 -14.987288,5.431233 H -8.0001845 c -7.8742005,0 -13.1405435,-2.45627 -11.8390965,-5.431233 L -4.6567268,34.877191 c 0.8894709,-2.032381 6.6601121,-3.635216 12.957888,-3.635216 z m 107.4171588,0 h 5.21801 c 1.14002,0 2.5137,1.602835 3.09135,3.635216 l 9.86421,34.706441 c 0.84559,2.974963 0.39548,5.431233 -1.03023,5.431233 h -6.52561 c -1.42573,0 -3.13989,-2.45627 -3.82647,-5.431233 l -8.00976,-34.706441 c -0.46896,-2.032381 0.0784,-3.635216 1.2185,-3.635216 z m 20.25915,0 h 5.218 c 1.14003,0 2.69959,1.602835 3.51302,3.635216 l 13.88944,34.706441 c 1.19056,2.974963 1.02537,5.431233 -0.40036,5.431233 h -6.5256 c -1.42573,0 -3.42555,-2.45627 -4.45718,-5.431233 L 135.17993,34.877191 c -0.70474,-2.032381 -0.34249,-3.635216 0.79754,-3.635216 z" />
        <path
           id="path2901"
           style="opacity:1;fill:#999999;stroke-width:15.346;stroke-linecap:round;stroke-linejoin:round;paint-order:markers fill stroke;stop-color:#000000"
           d="m -116.0294,85.187454 h 378.7546 c 7.56553,0 13.6562,5.582019 13.6562,12.515753 v 51.535773 c 0,6.93372 -6.09067,12.51574 -13.6562,12.51574 h -378.7546 c -7.56553,0 -13.6562,-5.58202 -13.6562,-12.51574 V 97.703207 c 0,-6.933734 6.09067,-12.515753 13.6562,-12.515753 z" />
      </g>
    </g>
    <path
       d="m -132.70712,-795.27242 q 2.44539,0 3.97831,-0.70321 1.56943,-0.70322 2.44539,-1.82009 0.87596,-1.11686 1.20444,-2.52329 0.32849,-1.40643 0.32849,-2.85422 0,-1.65462 -0.40148,-2.97832 -0.36499,-1.3237 -1.31394,-2.23374 -0.91246,-0.91004 -2.44539,-1.40643 -1.53293,-0.49638 -3.86882,-0.49638 h -8.61359 v 15.01568 z m -8.68659,-39.25588 v 14.89159 h 6.4237 q 2.0439,0 3.68632,-0.33092 1.64243,-0.33093 2.77387,-1.15824 1.16795,-0.82731 1.75192,-2.2751 0.62047,-1.4478 0.62047,-3.64017 0,-2.15101 -0.47448,-3.55743 -0.47447,-1.4478 -1.45993,-2.31647 -0.98545,-0.86868 -2.51838,-1.24097 -1.49643,-0.37229 -3.57683,-0.37229 z m 7.22666,-10.46547 q 5.51124,0 9.38006,1.15823 3.86882,1.15824 6.3142,3.26788 2.44539,2.10964 3.54034,5.12932 1.13144,3.01968 1.13144,6.74258 0,2.02691 -0.51097,3.92973 -0.51098,1.86144 -1.60593,3.51606 -1.09495,1.61326 -2.81037,2.97832 -1.71542,1.36506 -4.1243,2.35784 5.25575,1.44779 7.77413,4.6743 2.51838,3.22651 2.51838,8.35584 0,3.84699 -1.31393,7.15623 -1.31394,3.30924 -3.86882,5.79117 -2.51838,2.44057 -6.24121,3.847 -3.72282,1.36506 -8.5041,1.36506 h -21.242 v -60.26956 z"
       style="font-size:800px;line-height:1.25;font-family:Lato;-inkscape-font-specification:'Lato, Normal';white-space:pre;fill:#999999;stroke-width:0.0971394"
       id="path7431" />
    <path
       d="m -52.666347,-814.87968 q 0,6.53576 -2.007406,12.16147 -1.970907,5.62571 -5.584238,9.80363 -3.61333,4.13655 -8.723091,6.49438 -5.073262,2.35784 -11.277971,2.35784 -6.204709,0 -11.314469,-2.35784 -5.10976,-2.35783 -8.759588,-6.49438 -3.61333,-4.17792 -5.62074,-9.80363 -1.97091,-5.62571 -1.97091,-12.16147 0,-6.53575 1.97091,-12.16146 2.00741,-5.62571 5.62074,-9.76226 3.649828,-4.13655 8.759588,-6.49439 5.10976,-2.35783 11.314469,-2.35783 6.204709,0 11.277971,2.3992 5.109761,2.35783 8.723091,6.49438 3.613331,4.13656 5.584238,9.76227 2.007406,5.62571 2.007406,12.12009 z m -12.628408,0 q 0,-4.46747 -1.021952,-8.02491 -1.021952,-3.5988 -2.956361,-6.08073 -1.897911,-2.48193 -4.671781,-3.80563 -2.77387,-1.32369 -6.314204,-1.32369 -3.576832,0 -6.3872,1.32369 -2.77387,1.3237 -4.708279,3.80563 -1.897911,2.48193 -2.919863,6.08073 -1.021952,3.55744 -1.021952,8.02491 0,4.50885 1.021952,8.10765 1.021952,3.55743 2.919863,6.03936 1.934409,2.48193 4.708279,3.80563 2.810368,1.28233 6.3872,1.28233 3.540334,0 6.314204,-1.28233 2.77387,-1.3237 4.671781,-3.80563 1.934409,-2.48193 2.956361,-6.03936 1.021952,-3.5988 1.021952,-8.10765 z"
       style="font-size:800px;line-height:1.25;font-family:Lato;-inkscape-font-specification:'Lato, Normal';white-space:pre;fill:#999999;stroke-width:0.0971394"
       id="path7433" />
    <path
       d="m 6.7894188,-814.87968 q 0,6.53576 -2.0074058,12.16147 -1.9709076,5.62571 -5.58423807,9.80363 -3.61333053,4.13655 -8.72309083,6.49438 -5.0732621,2.35784 -11.2779711,2.35784 -6.204709,0 -11.314469,-2.35784 -5.10976,-2.35783 -8.759589,-6.49438 -3.613331,-4.17792 -5.620737,-9.80363 -1.970907,-5.62571 -1.970907,-12.16147 0,-6.53575 1.970907,-12.16146 2.007406,-5.62571 5.620737,-9.76226 3.649829,-4.13655 8.759589,-6.49439 5.10976,-2.35783 11.314469,-2.35783 6.204709,0 11.2779711,2.3992 5.1097603,2.35783 8.72309083,6.49438 3.61333047,4.13656 5.58423807,9.76227 2.0074058,5.62571 2.0074058,12.12009 z m -12.6284076,0 q 0,-4.46747 -1.0219521,-8.02491 -1.021952,-3.5988 -2.9563613,-6.08073 -1.8979108,-2.48193 -4.6717808,-3.80563 -2.77387,-1.32369 -6.314204,-1.32369 -3.576832,0 -6.3872,1.32369 -2.77387,1.3237 -4.708279,3.80563 -1.897911,2.48193 -2.919863,6.08073 -1.021953,3.55744 -1.021953,8.02491 0,4.50885 1.021953,8.10765 1.021952,3.55743 2.919863,6.03936 1.934409,2.48193 4.708279,3.80563 2.810368,1.28233 6.3872,1.28233 3.540334,0 6.314204,-1.28233 2.77387,-1.3237 4.6717808,-3.80563 1.9344093,-2.48193 2.9563613,-6.03936 1.0219521,-3.5988 1.0219521,-8.10765 z"
       style="font-size:800px;line-height:1.25;font-family:Lato;-inkscape-font-specification:'Lato, Normal';white-space:pre;fill:#999999;stroke-width:0.0971394"
       id="path7435" />
    <path
       d="m 26.389054,-820.58812 h 1.970908 q 2.737371,0 3.941815,-1.94418 l 11.971438,-19.68998 q 1.058451,-1.57189 2.262894,-2.15101 1.240942,-0.62048 3.065856,-0.62048 h 10.730497 l -15.76726,24.36429 q -1.678922,2.52329 -3.613331,3.64016 1.386935,0.57912 2.518382,1.61326 1.131447,1.03414 2.116901,2.68876 L 61.6464,-784.72421 H 50.623917 q -1.05845,0 -1.824914,-0.16546 -0.729966,-0.16547 -1.27744,-0.49639 -0.547474,-0.33092 -0.948956,-0.78594 -0.401481,-0.49639 -0.766464,-1.11687 l -12.044435,-20.97232 q -0.656969,-1.15824 -1.678921,-1.61326 -0.985454,-0.49638 -2.700873,-0.49638 h -2.99286 v 25.64662 H 14.052633 v -60.26956 h 12.336421 z"
       style="font-size:800px;line-height:1.25;font-family:Lato;-inkscape-font-specification:'Lato, Normal';white-space:pre;fill:#999999;stroke-width:0.0971394"
       id="path7437" />
    <path
       d="m 77.96109,-820.58812 h 1.970907 q 2.737372,0 3.941815,-1.94418 l 11.971439,-19.68998 q 1.05845,-1.57189 2.262894,-2.15101 1.240941,-0.62048 3.065855,-0.62048 h 10.7305 l -15.767263,24.36429 q -1.678921,2.52329 -3.613331,3.64016 1.386935,0.57912 2.518382,1.61326 1.131447,1.03414 2.116901,2.68876 l 16.059251,27.96309 h -11.02249 q -1.05845,0 -1.82491,-0.16546 -0.729967,-0.16547 -1.277442,-0.49639 -0.547474,-0.33092 -0.948955,-0.78594 -0.401481,-0.49639 -0.766464,-1.11687 l -12.044435,-20.97232 q -0.656969,-1.15824 -1.678922,-1.61326 -0.985453,-0.49638 -2.700873,-0.49638 H 77.96109 v 25.64662 H 65.624668 v -60.26956 H 77.96109 Z"
       style="font-size:800px;line-height:1.25;font-family:Lato;-inkscape-font-specification:'Lato, Normal';white-space:pre;fill:#4d4d4d;stroke-width:0.0971394"
       id="path7439" />
    <path
       d="m 129.60609,-834.23874 v 14.06428 h 16.71622 v 10.34138 h -16.71622 v 14.35383 h 21.82598 v 10.75504 h -34.23539 v -60.26956 h 34.23539 v 10.75503 z"
       style="font-size:800px;line-height:1.25;font-family:Lato;-inkscape-font-specification:'Lato, Normal';white-space:pre;fill:#4d4d4d;stroke-width:0.0971394"
       id="path7441" />
    <path
       d="m 171.43312,-834.23874 v 14.06428 h 16.71622 v 10.34138 h -16.71622 v 14.35383 h 21.82598 v 10.75504 h -34.23539 v -60.26956 h 34.23539 v 10.75503 z"
       style="font-size:800px;line-height:1.25;font-family:Lato;-inkscape-font-specification:'Lato, Normal';white-space:pre;fill:#4d4d4d;stroke-width:0.0971394"
       id="path7443" />
    <path
       d="m 219.61085,-815.41743 q 4.81778,0 6.93468,-2.60603 2.1169,-2.60602 2.1169,-7.28033 0,-2.06827 -0.54747,-3.76426 -0.54748,-1.69599 -1.67893,-2.89559 -1.09494,-1.24096 -2.81036,-1.90281 -1.67893,-0.66185 -4.01482,-0.66185 h -6.42369 v 19.11087 z m 0,-29.57634 q 5.62074,0 9.63555,1.53052 4.05131,1.48916 6.64269,4.13655 2.62788,2.6474 3.86882,6.2462 1.24094,3.5988 1.24094,7.77671 0,4.50885 -1.27744,8.27311 -1.27744,3.76426 -3.90532,6.45302 -2.62787,2.68876 -6.67918,4.21928 -4.01481,1.48916 -9.52606,1.48916 h -6.42369 v 20.14501 h -12.33643 v -60.26956 z"
       style="font-size:800px;line-height:1.25;font-family:Lato;-inkscape-font-specification:'Lato, Normal';white-space:pre;fill:#4d4d4d;stroke-width:0.0971394"
       id="path7445" />
  </g>
</svg>
